<?xml version="1.0" encoding="UTF-8"?>
<svg xmlns="http://www.w3.org/2000/svg" xmlns:xlink="http://www.w3.org/1999/xlink" width="80px" height="91px" viewBox="0 0 80 90" version="1.1">
<defs>
<linearGradient id="linear0" gradientUnits="userSpaceOnUse" x1="204.656" y1="111.6" x2="204.656" y2="64.538" gradientTransform="matrix(0.186732,0,0,0.184635,0.00213247,0.198238)">
<stop offset="0" style="stop-color:rgb(100%,94.901961%,17.647059%);stop-opacity:1;"/>
<stop offset="1" style="stop-color:rgb(82.745098%,35.686275%,40%);stop-opacity:1;"/>
</linearGradient>
<linearGradient id="linear1" gradientUnits="userSpaceOnUse" x1="236.75" y1="111.6" x2="236.75" y2="66.5" gradientTransform="matrix(0.186732,0,0,0.184635,0.00213247,0.198238)">
<stop offset="0" style="stop-color:rgb(100%,94.901961%,17.647059%);stop-opacity:1;"/>
<stop offset="1" style="stop-color:rgb(82.745098%,35.686275%,40%);stop-opacity:1;"/>
</linearGradient>
<linearGradient id="linear2" gradientUnits="userSpaceOnUse" x1="162.893" y1="118.479" x2="162.893" y2="71.194" gradientTransform="matrix(0.186732,0,0,0.184635,0.00213247,0.198238)">
<stop offset="0" style="stop-color:rgb(100%,94.901961%,17.647059%);stop-opacity:1;"/>
<stop offset="1" style="stop-color:rgb(82.745098%,35.686275%,40%);stop-opacity:1;"/>
</linearGradient>
<linearGradient id="linear3" gradientUnits="userSpaceOnUse" x1="266.067" y1="116.296" x2="266.067" y2="71" gradientTransform="matrix(0.186732,0,0,0.184635,0.00213247,0.198238)">
<stop offset="0" style="stop-color:rgb(100%,94.901961%,17.647059%);stop-opacity:1;"/>
<stop offset="1" style="stop-color:rgb(82.745098%,35.686275%,40%);stop-opacity:1;"/>
</linearGradient>
<linearGradient id="linear4" gradientUnits="userSpaceOnUse" x1="140.55" y1="91.7" x2="140.55" y2="74.2" gradientTransform="matrix(0.186732,0,0,0.184635,0.00213247,0.198238)">
<stop offset="0" style="stop-color:rgb(100%,94.901961%,17.647059%);stop-opacity:1;"/>
<stop offset="1" style="stop-color:rgb(82.745098%,35.686275%,40%);stop-opacity:1;"/>
</linearGradient>
<linearGradient id="linear5" gradientUnits="userSpaceOnUse" x1="291.684" y1="122.9" x2="291.684" y2="77.925" gradientTransform="matrix(0.186732,0,0,0.184635,0.00213247,0.198238)">
<stop offset="0" style="stop-color:rgb(100%,94.901961%,17.647059%);stop-opacity:1;"/>
<stop offset="1" style="stop-color:rgb(82.745098%,35.686275%,40%);stop-opacity:1;"/>
</linearGradient>
<linearGradient id="linear6" gradientUnits="userSpaceOnUse" x1="124.311" y1="130.8" x2="124.311" y2="85" gradientTransform="matrix(0.186732,0,0,0.184635,0.00213247,0.198238)">
<stop offset="0" style="stop-color:rgb(100%,94.901961%,17.647059%);stop-opacity:1;"/>
<stop offset="1" style="stop-color:rgb(82.745098%,35.686275%,40%);stop-opacity:1;"/>
</linearGradient>
<linearGradient id="linear7" gradientUnits="userSpaceOnUse" x1="316.403" y1="133" x2="316.403" y2="85.2" gradientTransform="matrix(0.186732,0,0,0.184635,0.00213247,0.198238)">
<stop offset="0" style="stop-color:rgb(100%,94.901961%,17.647059%);stop-opacity:1;"/>
<stop offset="1" style="stop-color:rgb(82.745098%,35.686275%,40%);stop-opacity:1;"/>
</linearGradient>
<linearGradient id="linear8" gradientUnits="userSpaceOnUse" x1="100.55" y1="141.4" x2="100.55" y2="95.296" gradientTransform="matrix(0.186732,0,0,0.184635,0.00213247,0.198238)">
<stop offset="0" style="stop-color:rgb(100%,94.901961%,17.647059%);stop-opacity:1;"/>
<stop offset="1" style="stop-color:rgb(82.745098%,35.686275%,40%);stop-opacity:1;"/>
</linearGradient>
<linearGradient id="linear9" gradientUnits="userSpaceOnUse" x1="346.05" y1="135.8" x2="346.05" y2="102.186" gradientTransform="matrix(0.186732,0,0,0.184635,0.00213247,0.198238)">
<stop offset="0" style="stop-color:rgb(100%,94.901961%,17.647059%);stop-opacity:1;"/>
<stop offset="1" style="stop-color:rgb(82.745098%,35.686275%,40%);stop-opacity:1;"/>
</linearGradient>
<linearGradient id="linear10" gradientUnits="userSpaceOnUse" x1="79.95" y1="160.1" x2="79.95" y2="113" gradientTransform="matrix(0.186732,0,0,0.184635,0.00213247,0.198238)">
<stop offset="0" style="stop-color:rgb(100%,94.901961%,17.647059%);stop-opacity:1;"/>
<stop offset="1" style="stop-color:rgb(82.745098%,35.686275%,40%);stop-opacity:1;"/>
</linearGradient>
<linearGradient id="linear11" gradientUnits="userSpaceOnUse" x1="383.5" y1="182.6" x2="383.5" y2="139.7" gradientTransform="matrix(0.186732,0,0,0.184635,0.00213247,0.198238)">
<stop offset="0" style="stop-color:rgb(100%,94.901961%,17.647059%);stop-opacity:1;"/>
<stop offset="1" style="stop-color:rgb(82.745098%,35.686275%,40%);stop-opacity:1;"/>
</linearGradient>
<linearGradient id="linear12" gradientUnits="userSpaceOnUse" x1="342.599" y1="152.6" x2="342.599" y2="140.025" gradientTransform="matrix(0.186732,0,0,0.184635,0.00213247,0.198238)">
<stop offset="0" style="stop-color:rgb(100%,94.901961%,17.647059%);stop-opacity:1;"/>
<stop offset="1" style="stop-color:rgb(82.745098%,35.686275%,40%);stop-opacity:1;"/>
</linearGradient>
<linearGradient id="linear13" gradientUnits="userSpaceOnUse" x1="44" y1="193.7" x2="44" y2="150.5" gradientTransform="matrix(0.186732,0,0,0.184635,0.00213247,0.198238)">
<stop offset="0" style="stop-color:rgb(100%,94.901961%,17.647059%);stop-opacity:1;"/>
<stop offset="1" style="stop-color:rgb(82.745098%,35.686275%,40%);stop-opacity:1;"/>
</linearGradient>
<linearGradient id="linear14" gradientUnits="userSpaceOnUse" x1="213.746" y1="3.8" x2="213.746" y2="480.5" gradientTransform="matrix(0.186732,0,0,0.184635,0.00213247,0.198238)">
<stop offset="0" style="stop-color:rgb(92.941176%,73.72549%,31.764706%);stop-opacity:1;"/>
<stop offset="0.629" style="stop-color:rgb(82.745098%,35.686275%,40%);stop-opacity:1;"/>
<stop offset="1" style="stop-color:rgb(59.215686%,7.058824%,20.392157%);stop-opacity:1;"/>
</linearGradient>
</defs>
<g id="surface1">
<path style=" stroke:none;fill-rule:nonzero;fill:rgb(0%,0%,0%);fill-opacity:1;" d="M 49.523438 10.167969 C 52.679688 10.609375 55.628906 11.5 58.578125 12.476562 C 59.402344 12.84375 60.242188 13.140625 61.046875 13.585938 C 67.507812 16.445312 73.667969 22.152344 77.121094 28.429688 C 78.222656 30.535156 79.511719 32.566406 79.996094 34.949219 L 78.113281 37.515625 C 78.613281 38.160156 79.304688 38.75 79.902344 39.378906 C 77.980469 42 76.078125 44.640625 73.984375 47.207031 C 74.433594 47.277344 74.976562 46.855469 75.386719 47.261719 C 75.851562 48.054688 76.691406 47.167969 77.214844 47.832031 C 77.628906 48.167969 77.683594 48.683594 77.570312 49.164062 C 77.046875 50.214844 75.871094 50.457031 75.011719 51.101562 L 74.9375 51.507812 C 75.871094 51.96875 76.691406 50.769531 77.402344 51.695312 C 77.496094 52.5625 77.535156 53.539062 76.671875 54.078125 C 75.683594 54.589844 74.527344 54.128906 73.628906 53.726562 C 73.367188 54.554688 73.3125 55.515625 72.511719 56.066406 C 71.464844 56.585938 70.34375 55.992188 69.335938 55.941406 C 68.609375 56.160156 67.746094 56.050781 67.003906 56.199219 C 66.648438 56.695312 66.273438 57.175781 65.824219 57.617188 C 65.433594 59.171875 65.769531 61.292969 63.769531 61.921875 C 63.414062 62.070312 62.964844 62.011719 62.613281 62.144531 C 62.914062 63.085938 64.667969 62.917969 64.179688 64.226562 C 63.882812 65.246094 63.117188 66.371094 61.941406 66.484375 C 61.363281 66.609375 61.101562 65.300781 60.597656 66.222656 C 60.410156 66.757812 59.980469 67.480469 59.328125 67.550781 C 60.335938 67.460938 61.382812 67.757812 61.886719 68.664062 C 62.332031 69.140625 62.089844 69.933594 62.613281 70.339844 C 62.742188 71.246094 63.003906 72.574219 62.203125 73.21875 C 61.289062 72.980469 61.453125 74.054688 60.953125 74.421875 C 59.980469 75.566406 58.859375 76.691406 57.363281 76.765625 C 57.308594 77.007812 57.402344 77.320312 57.496094 77.5625 C 57.757812 78.925781 57.363281 80.144531 56.414062 81.066406 C 55.292969 82.007812 53.632812 82.324219 52.210938 81.898438 C 50.980469 81.53125 49.558594 80.699219 49.113281 79.390625 L 48.664062 79.867188 L 41.046875 89.65625 L 40.914062 89.800781 L 32.902344 80.347656 L 32.808594 80.273438 C 31.277344 81.917969 28.851562 82.304688 26.761719 81.640625 C 25.359375 81.179688 23.699219 80.109375 23.398438 78.539062 C 23.25 77.320312 23.847656 76.15625 24.78125 75.308594 C 25.003906 74.402344 25.003906 73.425781 25.640625 72.6875 C 25.566406 72.355469 25.769531 72.058594 25.675781 71.765625 L 24.875 70.96875 C 24.074219 71.230469 23.101562 71.097656 22.503906 70.527344 C 22.035156 69.953125 21.625 69.308594 21.832031 68.53125 C 21.90625 68.21875 22.148438 67.976562 22.183594 67.644531 C 20.730469 65.910156 19.386719 64.210938 17.796875 62.585938 C 15.78125 62.566406 13.652344 62.566406 11.746094 62.9375 C 11.824219 64.746094 11.148438 66.371094 9.542969 67.367188 C 8.535156 68.050781 7.453125 68.789062 6.183594 68.605469 C 5.527344 67.609375 4.277344 68.9375 3.550781 67.996094 C 3.160156 67.71875 2.988281 67.203125 3.140625 66.703125 C 3.195312 66.683594 3.175781 66.628906 3.175781 66.574219 C 2.710938 66.335938 1.90625 66.058594 1.925781 65.375 C 2.167969 63.453125 4.074219 62.199219 4.894531 60.5 L 4.800781 60.410156 C 3.664062 60.410156 2.261719 60.59375 1.664062 59.394531 C 1.402344 58.949219 1.550781 58.339844 1.796875 57.933594 C 2.316406 57.269531 3.082031 56.828125 3.941406 57.011719 C 4.425781 57.398438 4.707031 57.953125 5.285156 58.117188 C 6.128906 57.824219 7.117188 57.417969 7.9375 58.027344 C 8.328125 58.488281 9.097656 58.246094 9.636719 58.246094 C 10.105469 58.136719 10.738281 58.285156 11.113281 58.117188 C 9.617188 57.601562 8.050781 56.140625 7.976562 54.480469 C 7.660156 54.261719 7.210938 54.371094 6.855469 54.203125 C 6.296875 54.058594 6.015625 53.445312 5.960938 52.929688 C 5.789062 52.007812 6.632812 51.488281 6.460938 50.585938 L 6.855469 49.476562 L 6.015625 48.5 C 4.859375 49.035156 3.234375 49.753906 2.054688 48.886719 C 1.140625 48.132812 1.175781 46.890625 1.347656 45.804688 C 1.589844 45.101562 1.816406 44.417969 2.207031 43.808594 C 1.550781 42.867188 0.695312 42.019531 0.00390625 41.09375 L 1.980469 39.0625 L 1.980469 38.933594 L 0.132812 36.625 C 0.785156 34.890625 1.476562 33.171875 2.371094 31.53125 C 4.707031 27.246094 7.828125 23.09375 11.839844 19.695312 C 16.902344 15.410156 22.636719 12.734375 28.777344 11.054688 L 39.121094 0.199219 L 39.214844 0.199219 Z M 49.523438 10.167969 "/>
<path style=" stroke:none;fill-rule:nonzero;fill:rgb(0%,62.352941%,88.235294%);fill-opacity:1;" d="M 15.996094 45.382812 L 15.453125 45.070312 L 14.882812 45.007812 L 14.246094 45.355469 L 13.101562 46.738281 L 12.304688 47.175781 L 11.519531 47.734375 C 11.613281 47.832031 11.683594 47.945312 11.691406 48.09375 C 11.355469 48.996094 10.980469 47.722656 10.441406 47.964844 C 10.386719 48.039062 10.273438 48.09375 10.273438 48.183594 L 12.550781 50.808594 C 12.402344 50.898438 12.234375 50.972656 12.066406 50.882812 C 11.335938 50.34375 10.945312 49.515625 10.308594 48.851562 C 9.933594 48.554688 9.414062 48.480469 8.925781 48.59375 C 7.976562 48.90625 7.246094 49.828125 6.949219 50.714844 C 6.761719 51.4375 7.042969 52.082031 7.527344 52.578125 C 8.421875 53.261719 9.769531 53.300781 10.890625 53.058594 C 11.261719 53.039062 11.617188 52.6875 11.972656 52.875 C 11.972656 53.132812 12.175781 53.574219 11.785156 53.726562 C 10.644531 53.59375 9.695312 54.167969 8.609375 53.910156 C 8.386719 55.089844 8.851562 56.140625 9.824219 56.863281 C 12.234375 58.691406 14.976562 57.859375 17.796875 57.75 C 19.160156 57.214844 20.464844 56.417969 21.644531 55.53125 C 21.457031 55.386719 21.234375 55.273438 21.199219 55.015625 C 21.140625 53.742188 22.335938 55.015625 22.894531 54.609375 C 24.503906 54.539062 25.699219 52.894531 26.179688 51.507812 C 26.535156 50.382812 26.367188 49.015625 25.453125 48.183594 C 24.914062 47.890625 24.410156 47.816406 23.753906 47.925781 C 22.671875 48.074219 21.699219 48.871094 21.253906 49.863281 C 21.066406 50.214844 21.085938 50.640625 20.804688 50.9375 C 20.636719 51.007812 20.578125 50.824219 20.484375 50.75 C 20.355469 50.4375 20.503906 50.140625 20.523438 49.828125 C 20.636719 49.605469 20.839844 49.441406 20.878906 49.199219 C 20.242188 47.53125 18.445312 46.472656 17.023438 45.515625 C 16.398438 45.347656 15.996094 45.382812 15.996094 45.382812 Z M 15.996094 45.382812 "/>
<path style=" stroke:none;fill-rule:nonzero;fill:rgb(75.294118%,69.411765%,83.137255%);fill-opacity:1;" d="M 57.910156 12.824219 C 67.523438 16.019531 76.414062 25.125 79.492188 34.726562 C 77.757812 37.089844 76.058594 39.488281 74.265625 41.851562 C 73.949219 41.832031 73.816406 41.425781 73.59375 41.222656 L 73.21875 40.929688 C 73.683594 40.910156 74.078125 40.652344 74.339844 40.265625 C 74.714844 39.175781 73.949219 38.253906 73.3125 37.421875 C 71.519531 35.445312 69.296875 33.78125 66.722656 33.691406 L 66.140625 33.617188 C 63.488281 30.535156 60.222656 28.078125 56.695312 26.5625 C 55.890625 26.121094 55.011719 25.824219 54.171875 25.457031 C 52.023438 24.734375 49.578125 24.144531 47.285156 23.902344 C 46.925781 23.792969 46.441406 23.777344 46.03125 23.683594 C 37.609375 22.835938 28.253906 24.253906 21.101562 29.128906 C 18.078125 31.105469 15.351562 33.914062 13.089844 36.792969 C 11.503906 36.8125 9.617188 36.625 8.328125 37.640625 C 6.816406 38.527344 5.527344 39.765625 4.222656 41.058594 L 4.074219 41.058594 L 0.710938 36.535156 C 2.039062 32.363281 4.464844 28.632812 7.265625 25.050781 C 10.980469 20.527344 15.59375 17.109375 20.429688 14.636719 C 20.523438 14.65625 20.691406 14.5625 20.804688 14.46875 C 23.640625 13.175781 26.574219 12.125 29.671875 11.460938 C 29.824219 11.3125 30.011719 11.351562 30.160156 11.3125 C 32.140625 10.851562 34.117188 10.609375 36.113281 10.351562 C 37.085938 10.277344 38.285156 10.296875 39.308594 10.132812 C 45.621094 9.964844 52.101562 10.59375 57.910156 12.824219 Z M 57.910156 12.824219 "/>
<path style=" stroke:none;fill-rule:nonzero;fill:rgb(0%,0%,0%);fill-opacity:1;" d="M 40.878906 13.714844 C 41.066406 13.972656 41.046875 14.304688 41.234375 14.5625 C 40.800781 14.839844 40.222656 15.191406 39.886719 15.617188 C 40.335938 15.816406 40.726562 16.09375 41.140625 16.371094 C 41.308594 15.117188 41.34375 14.324219 41.457031 13.050781 C 42.015625 12.734375 42.558594 12.421875 43.117188 12.125 C 43.230469 12.363281 43.246094 12.714844 43.246094 12.957031 C 43.304688 13.101562 43.492188 13.066406 43.566406 13.011719 C 43.621094 12.917969 43.808594 12.773438 43.828125 12.957031 C 43.886719 13.585938 43.960938 14.082031 44.050781 14.636719 C 44.539062 14.140625 44.089844 12.789062 45.136719 12.699219 C 45.433594 12.550781 45.898438 12.511719 46.257812 12.347656 C 46.441406 12.511719 46.238281 12.992188 46.421875 13.234375 C 46.609375 13.234375 46.703125 13.011719 46.925781 13.085938 C 46.984375 13.917969 47.003906 14.839844 47.226562 15.707031 C 47.378906 15.339844 47.507812 14.96875 47.636719 14.601562 C 47.839844 14.140625 47.917969 13.601562 48.121094 13.140625 C 48.890625 13.140625 49.617188 13.472656 50.363281 13.492188 C 50.476562 13.714844 49.988281 13.917969 50.289062 14.15625 C 50.511719 14.140625 50.757812 14.230469 50.960938 14.195312 C 51.015625 14.304688 51.015625 14.339844 50.996094 14.46875 C 51.277344 14.5625 51.464844 14.195312 51.765625 14.195312 C 51.691406 14.582031 51.707031 14.859375 51.800781 15.226562 L 51.859375 15.226562 L 51.933594 14.5625 C 52.210938 14.488281 52.417969 14.582031 52.660156 14.417969 C 54.324219 14.339844 56.414062 14.175781 57.496094 15.742188 L 58.207031 16.464844 C 59.347656 16.09375 60.464844 15.742188 61.621094 15.707031 L 61.492188 16.464844 C 61.699219 16.574219 62.015625 16.429688 62.296875 16.410156 C 62.164062 17.277344 62.015625 17.980469 61.886719 18.847656 C 61.792969 19.066406 61.492188 18.992188 61.304688 19.03125 C 60.613281 19.273438 59.996094 19.253906 59.328125 19.566406 C 59.308594 19.640625 59.382812 19.695312 59.421875 19.734375 C 59.867188 19.660156 60.390625 19.53125 60.859375 19.382812 L 60.765625 20.230469 C 61.007812 20.324219 61.269531 20.230469 61.492188 20.136719 C 61.492188 20.914062 61.304688 21.652344 61.304688 22.539062 C 60.746094 22.539062 60.222656 22.6875 59.699219 22.761719 C 59.773438 23.554688 60.183594 24.347656 60.539062 25.105469 C 59.679688 25.273438 58.898438 25.585938 58.039062 25.773438 L 57.945312 24.976562 C 57.816406 24.941406 57.574219 24.921875 57.460938 25.050781 C 57.273438 24.457031 57.273438 23.921875 57.085938 23.332031 C 56.804688 23.441406 56.789062 23.757812 56.5625 23.941406 C 55.574219 23.535156 54.921875 22.871094 54.003906 22.316406 C 53.820312 22.59375 53.984375 23.074219 53.871094 23.332031 C 53.277344 23.554688 52.605469 23.609375 51.988281 23.777344 C 51.746094 23.5 52.15625 23 51.800781 22.835938 C 51.652344 22.980469 51.464844 22.964844 51.261719 22.980469 C 51.183594 22.632812 51.449219 22.316406 51.222656 22.039062 C 50.328125 22.449219 49.226562 22.980469 48.214844 22.449219 C 47.65625 22.207031 47.582031 21.539062 47.058594 21.285156 C 46.796875 21.503906 46.496094 21.578125 46.199219 21.726562 C 46.050781 21.449219 46.144531 20.839844 45.808594 20.839844 C 45.734375 20.933594 45.640625 20.988281 45.527344 20.988281 C 45.433594 20.636719 45.398438 20.269531 45.210938 19.953125 L 44.539062 21.597656 C 44.316406 21.320312 44.238281 20.875 43.960938 20.675781 C 43.886719 20.710938 43.960938 20.859375 43.828125 20.839844 C 43.734375 20.691406 43.699219 20.507812 43.566406 20.359375 C 43.585938 20.710938 43.492188 21.355469 43.660156 21.78125 C 43.285156 21.929688 42.894531 21.6875 42.578125 21.726562 C 42.203125 21.613281 41.792969 21.597656 41.417969 21.503906 C 41.269531 21.191406 41.714844 20.839844 41.195312 20.804688 C 40.578125 20.875 40.203125 21.488281 39.570312 21.652344 C 38.507812 21.984375 37.402344 21.800781 36.488281 21.285156 C 36.210938 21.078125 36.300781 20.617188 35.890625 20.582031 C 35.40625 20.15625 35.332031 19.660156 35.445312 19.03125 C 35.5 18.679688 35.613281 18.367188 35.761719 18.050781 C 36.394531 18.164062 37.050781 18.367188 37.648438 18.402344 C 37.738281 18.625 37.273438 18.828125 37.550781 19.066406 C 38.300781 19.382812 38.898438 18.699219 39.402344 18.183594 C 39.011719 17.90625 38.414062 18.015625 38.003906 17.921875 C 37.234375 17.90625 36.078125 18.089844 35.722656 17.074219 C 35.222656 16.796875 34.921875 16.28125 34.863281 15.707031 C 34.699219 14.675781 35.332031 13.714844 36.113281 13.011719 C 37.085938 12.328125 38.355469 11.40625 39.535156 12.160156 C 40 12.699219 40.484375 13.121094 40.878906 13.714844 Z M 40.878906 13.714844 "/>
<path style=" stroke:none;fill-rule:nonzero;fill:url(#linear0);" d="M 40.019531 13.011719 C 40.167969 13.234375 40.277344 13.453125 40.335938 13.714844 C 39.796875 13.9375 39.386719 14.542969 38.898438 14.785156 C 38.691406 14.417969 38.375 13.898438 37.910156 13.972656 C 37.328125 14.265625 36.621094 14.785156 36.566406 15.484375 C 37.085938 15.597656 37.550781 15.632812 38.191406 15.617188 C 39.234375 15.542969 40.1875 15.761719 41.007812 16.503906 C 41.34375 17 41.492188 17.460938 41.363281 18.109375 C 40.839844 19.328125 39.796875 20.472656 38.414062 20.804688 C 37.421875 20.839844 36.394531 20.894531 35.816406 20.046875 C 35.59375 19.511719 35.632812 18.753906 35.949219 18.273438 C 36.378906 18.273438 36.769531 18.460938 37.160156 18.460938 C 37.214844 18.570312 37.328125 18.53125 37.421875 18.550781 C 37.386719 18.789062 37.234375 18.992188 37.292969 19.289062 C 37.535156 19.550781 37.910156 19.34375 38.191406 19.289062 C 38.804688 18.992188 39.738281 18.570312 39.796875 17.738281 C 38.859375 16.742188 37.308594 17.148438 36.113281 16.90625 C 35.632812 16.742188 35.332031 16.261719 35.089844 15.890625 C 34.773438 14.675781 35.703125 13.679688 36.527344 12.917969 C 37.460938 12.273438 39.328125 11.386719 40.019531 13.011719 Z M 40.019531 13.011719 "/>
<path style=" stroke:none;fill-rule:nonzero;fill:url(#linear1);" d="M 43.15625 13.234375 C 43.398438 14.285156 43.378906 15.28125 43.789062 16.28125 C 44.109375 16.152344 43.921875 15.890625 44.050781 15.667969 C 44.742188 14.746094 44.035156 12.789062 45.714844 12.734375 C 45.847656 12.714844 45.957031 12.625 46.105469 12.640625 C 46.105469 13.289062 46.292969 13.898438 46.292969 14.46875 C 46.441406 16.296875 46.835938 18.144531 47.285156 19.917969 C 46.738281 20.175781 46.21875 20.453125 45.660156 20.675781 C 45.453125 19.953125 45.378906 19.066406 45.210938 18.273438 C 45.097656 18.109375 45.265625 17.832031 45.042969 17.703125 C 44.632812 18.109375 44.613281 18.753906 44.316406 19.253906 L 43.828125 20.453125 C 43.398438 19.550781 43.117188 18.605469 42.800781 17.664062 C 42.425781 17.792969 42.746094 18.183594 42.707031 18.460938 C 42.671875 19.234375 42.765625 19.84375 42.800781 20.710938 L 42.707031 20.804688 C 42.128906 20.765625 41.585938 20.710938 41.140625 20.617188 C 41.808594 19.898438 42.449219 19.105469 42.316406 18.109375 C 42.316406 17.3125 40.988281 16.984375 41.363281 16.152344 C 41.4375 15.117188 41.585938 14.285156 41.585938 13.234375 C 42.035156 12.917969 42.464844 12.585938 42.988281 12.476562 C 43.101562 12.699219 42.988281 12.992188 43.15625 13.234375 Z M 43.15625 13.234375 "/>
<path style=" stroke:none;fill-rule:nonzero;fill:rgb(0%,0%,0%);fill-opacity:1;" d="M 33.261719 15.835938 C 32.753906 16.078125 32.289062 16.390625 31.859375 16.816406 C 32.921875 17.183594 33.707031 18.21875 34.285156 19.160156 C 34.621094 20.730469 33.183594 21.929688 32.007812 22.707031 C 31.765625 22.761719 31.652344 22.742188 31.464844 22.929688 C 30.441406 23.1875 29.132812 23.113281 28.328125 22.316406 C 28.140625 21.800781 27.453125 21.558594 27.472656 20.933594 C 27.414062 20.289062 27.546875 19.75 27.882812 19.253906 L 29.617188 19.660156 C 29.765625 19.882812 29.113281 20.230469 29.671875 20.324219 C 30.382812 20.472656 31.039062 19.898438 31.410156 19.382812 C 31.148438 19.328125 30.886719 19.140625 30.609375 19.214844 C 29.652344 19.03125 28.179688 19.492188 27.75 18.328125 C 27.566406 18.125 27.378906 17.980469 27.152344 17.886719 C 27.078125 18.050781 26.964844 18.234375 26.761719 18.109375 C 26.667969 18.070312 26.609375 17.960938 26.535156 18.109375 L 26.351562 18.992188 C 25.941406 19.066406 25.265625 18.957031 24.875 19.121094 C 24.6875 19.511719 24.855469 20.210938 24.742188 20.617188 C 24.613281 22.097656 24.800781 23.5 24.742188 25.050781 C 24.464844 25.179688 24.148438 25.179688 23.847656 25.234375 C 23.324219 25.234375 22.972656 25.382812 22.539062 25.457031 C 22.390625 25.199219 22.636719 24.902344 22.449219 24.605469 L 21.867188 24.605469 C 21.851562 22.929688 22.074219 21.300781 22.183594 19.566406 C 22.128906 19.511719 22.128906 19.4375 22.054688 19.382812 L 21.832031 19.472656 C 21.679688 19.917969 21.589844 20.378906 21.382812 20.804688 C 20.449219 20.839844 19.738281 20.875 18.863281 21.027344 C 18.789062 21.078125 18.824219 21.171875 18.789062 21.246094 C 19.292969 21.355469 19.871094 21.097656 20.394531 20.933594 C 20.464844 21.210938 20.261719 21.613281 20.394531 21.875 C 20.558594 21.6875 20.859375 21.835938 21.066406 21.726562 C 21.066406 22.152344 20.878906 22.667969 20.933594 23.113281 C 20.765625 23.242188 20.859375 23.351562 20.878906 23.5 C 21.199219 23.683594 20.972656 24.625 21.605469 24.253906 C 21.867188 25.03125 22.074219 25.84375 22.371094 26.601562 C 22.015625 26.839844 21.496094 26.675781 21.160156 26.914062 C 20.003906 27.042969 18.84375 27.136719 17.703125 27.320312 L 17.703125 27.449219 L 18.730469 29.261719 C 18.582031 29.425781 18.320312 29.316406 18.191406 29.539062 C 18.078125 29.539062 17.851562 29.574219 17.703125 29.628906 C 16.488281 30 15.316406 30.460938 14.082031 30.773438 C 13.972656 30.496094 13.933594 30.203125 13.800781 29.925781 L 13.410156 30.070312 C 12.773438 27.246094 12.476562 24.441406 11.914062 21.597656 C 12.625 21.171875 13.425781 21.007812 14.15625 20.675781 C 14.378906 20.96875 14.210938 21.246094 14.378906 21.558594 C 14.546875 21.558594 14.679688 21.46875 14.828125 21.429688 C 15.015625 21.632812 14.863281 21.984375 14.976562 22.226562 C 15.128906 23.71875 15.351562 25.421875 15.648438 26.96875 C 15.949219 26.859375 16.210938 26.65625 16.488281 26.472656 C 16.433594 25.585938 16.433594 24.476562 16.265625 23.59375 C 16.265625 22.375 16.042969 21.027344 16.003906 19.882812 C 15.964844 19.417969 15.875 18.789062 15.910156 18.367188 C 17.441406 18.015625 19.046875 17.8125 20.617188 17.519531 C 20.671875 17.128906 20.691406 16.742188 20.652344 16.371094 C 22.054688 15.945312 23.585938 15.964844 24.914062 15.667969 C 25.246094 15.449219 25.171875 14.988281 25.414062 14.691406 C 25.453125 14.285156 25.675781 13.972656 25.734375 13.585938 C 26.425781 13.660156 27.113281 14.046875 27.824219 14.195312 C 27.976562 14.285156 27.710938 14.453125 27.976562 14.417969 C 28.871094 13.546875 30.175781 12.808594 31.410156 13.308594 C 32.160156 14.027344 33.050781 14.839844 33.261719 15.835938 Z M 33.261719 15.835938 "/>
<path style=" stroke:none;fill-rule:nonzero;fill:url(#linear2);" d="M 32.363281 14.949219 C 31.765625 15.191406 31.523438 15.742188 30.925781 15.964844 C 30.644531 15.6875 30.457031 15.023438 29.898438 15.226562 C 29.320312 15.558594 28.761719 16.003906 28.550781 16.632812 C 29.300781 17.074219 30.363281 16.722656 31.242188 16.851562 C 32.046875 17.074219 33.035156 17.40625 33.351562 18.234375 C 33.707031 19.121094 33.128906 19.972656 32.621094 20.675781 C 31.613281 21.800781 30.273438 22.335938 28.910156 21.949219 C 28.476562 21.835938 28.03125 21.632812 27.824219 21.210938 C 27.566406 20.597656 27.75 20.027344 28.011719 19.472656 C 28.535156 19.550781 28.890625 19.675781 29.394531 19.789062 C 29.449219 19.992188 29.097656 20.5625 29.542969 20.675781 C 30.441406 20.488281 31.410156 20.046875 31.824219 19.160156 C 31.824219 18.921875 31.691406 18.699219 31.464844 18.585938 C 30.832031 18.421875 30.234375 18.183594 29.488281 18.273438 C 29.449219 18.164062 29.355469 18.234375 29.261719 18.273438 C 28.648438 18.292969 27.824219 18.164062 27.378906 17.570312 C 27.660156 16.6875 28.273438 15.945312 28.496094 15.042969 C 28.402344 14.859375 28.140625 14.859375 27.976562 14.785156 C 28.761719 13.9375 29.933594 13.03125 31.183594 13.398438 C 31.785156 13.789062 32.175781 14.304688 32.363281 14.949219 Z M 32.363281 14.949219 "/>
<path style=" stroke:none;fill-rule:nonzero;fill:url(#linear3);" d="M 50.066406 13.621094 C 49.972656 14.101562 49.726562 14.417969 49.558594 14.859375 C 49.300781 15.300781 49.1875 15.78125 48.980469 16.242188 C 48.644531 17.3125 48.121094 18.605469 48.402344 19.660156 C 49 20.25 49.636719 19.808594 50.234375 19.511719 C 50.644531 19.03125 50.214844 18.402344 50.234375 17.921875 C 50.066406 17.058594 50.027344 16.296875 49.914062 15.394531 C 50.457031 15.097656 50.980469 14.726562 51.539062 14.507812 C 51.558594 16.242188 51.597656 18.460938 52.023438 20.175781 C 51.953125 20.507812 51.484375 20.636719 51.183594 20.804688 C 50.046875 21.265625 48.535156 22.300781 47.378906 21.210938 C 47.601562 20.875 48.570312 21.007812 48.121094 20.359375 C 47.917969 19.824219 47.804688 19.253906 47.675781 18.679688 C 47.5625 17.792969 47.246094 17 47.378906 16.058594 C 47.636719 15.171875 47.898438 14.175781 48.347656 13.308594 C 48.945312 13.511719 49.410156 13.566406 50.066406 13.621094 Z M 50.066406 13.621094 "/>
<path style=" stroke:none;fill-rule:nonzero;fill:url(#linear4);" d="M 27.527344 14.46875 C 27.226562 15.449219 26.535156 16.203125 26.179688 17.128906 L 24.96875 16.503906 C 25.398438 15.667969 25.566406 14.746094 25.902344 13.898438 C 26.5 13.953125 26.984375 14.265625 27.527344 14.46875 Z M 27.527344 14.46875 "/>
<path style=" stroke:none;fill-rule:nonzero;fill:url(#linear5);" d="M 55.667969 14.785156 C 56.246094 15.042969 56.953125 15.339844 57.234375 15.964844 C 57.609375 16.78125 57.308594 17.589844 56.953125 18.328125 C 56.320312 19.289062 55.3125 19.660156 54.359375 20.175781 C 55.164062 20.765625 56.039062 21.007812 56.863281 21.375 L 56.863281 21.597656 C 56.582031 22.058594 56.132812 22.503906 55.742188 22.890625 C 54.882812 22.375 54.042969 21.78125 53.203125 21.210938 L 53.109375 21.285156 C 53.074219 21.671875 53.203125 22.1875 52.921875 22.390625 C 52.433594 22.429688 51.988281 22.539062 51.539062 22.761719 C 51.597656 22.316406 51.335938 21.78125 51.933594 21.6875 C 52.25 21.558594 52.546875 21.414062 52.828125 21.210938 C 52.921875 20.765625 52.679688 20.378906 52.699219 19.917969 C 52.492188 19.066406 52.546875 18.253906 52.472656 17.351562 C 52.417969 16.722656 52.417969 15.726562 52.472656 15.042969 C 52.417969 14.933594 52.25 14.859375 52.210938 15.003906 C 52.175781 15.0625 52.117188 15.042969 52.082031 15.042969 C 52.101562 14.933594 52.007812 14.746094 52.15625 14.691406 C 53.332031 14.582031 54.546875 14.488281 55.667969 14.785156 Z M 55.667969 14.785156 "/>
<path style=" stroke:none;fill-rule:nonzero;fill:rgb(75.294118%,69.411765%,83.137255%);fill-opacity:1;" d="M 39.085938 15.355469 C 38.730469 15.429688 38.320312 15.339844 38.003906 15.300781 C 38.113281 15.136719 38.300781 15.097656 38.449219 15.003906 C 38.65625 14.988281 38.933594 15.171875 39.085938 15.355469 Z M 39.085938 15.355469 "/>
<path style=" stroke:none;fill-rule:nonzero;fill:url(#linear6);" d="M 24.875 15.890625 C 24.96875 16.242188 24.316406 16.574219 24.742188 16.816406 C 24.929688 16.945312 25.191406 16.871094 25.359375 17.039062 C 25.414062 17.242188 25.058594 17.386719 25.324219 17.570312 C 25.527344 17.5 25.566406 17.683594 25.546875 17.832031 C 25.414062 18.253906 24.855469 17.941406 24.558594 18.109375 C 24.410156 18.234375 24.148438 18.015625 23.976562 18.234375 C 23.828125 20.359375 23.902344 22.078125 23.847656 24.089844 C 23.175781 24.089844 22.765625 24.238281 22.148438 24.347656 C 21.925781 23.921875 22.183594 23.425781 22.089844 23.019531 C 22.183594 21.449219 22.390625 19.84375 22.503906 18.234375 C 22.296875 18.125 21.945312 18.292969 21.738281 18.273438 C 21.589844 18.402344 21.421875 18.328125 21.253906 18.402344 C 21.308594 18.109375 21.441406 17.8125 21.550781 17.519531 C 21.441406 17.371094 21.085938 17.425781 20.878906 17.480469 L 20.878906 16.464844 C 22.183594 16.203125 23.546875 16.078125 24.875 15.890625 Z M 24.875 15.890625 "/>
<path style=" stroke:none;fill-rule:nonzero;fill:url(#linear7);" d="M 61.34375 15.929688 C 61.363281 16.59375 61.175781 17.277344 61.175781 17.832031 C 61.082031 18.089844 60.707031 18.015625 60.449219 18.109375 C 60.035156 18.273438 59.535156 18.273438 59.101562 18.460938 C 58.859375 18.402344 58.691406 18.53125 58.523438 18.714844 C 58.578125 19.308594 58.410156 19.640625 58.652344 20.136719 C 59.328125 19.992188 59.980469 19.714844 60.636719 19.695312 C 60.523438 20.269531 60.671875 20.96875 60.503906 21.503906 C 59.996094 21.652344 59.441406 21.707031 58.839844 21.875 C 58.953125 22.613281 59.328125 23.371094 59.550781 24.128906 C 58.933594 24.402344 58.242188 24.476562 57.628906 24.753906 C 57.496094 24.144531 57.347656 23.609375 57.308594 22.929688 L 57.945312 22.167969 C 57.703125 22.003906 57.402344 21.800781 57.085938 21.726562 C 57.066406 21.578125 57.308594 21.539062 57.273438 21.375 C 56.769531 21.210938 56.933594 20.597656 56.824219 20.175781 C 57.851562 19.492188 58.523438 18.308594 58.355469 17.039062 L 58.207031 16.632812 C 59.214844 16.296875 60.277344 16.078125 61.34375 15.929688 Z M 61.34375 15.929688 "/>
<path style=" stroke:none;fill-rule:nonzero;fill:rgb(75.294118%,69.411765%,83.137255%);fill-opacity:1;" d="M 31.109375 16.632812 C 30.699219 16.6875 30.441406 16.503906 30.121094 16.632812 L 30.027344 16.554688 C 30.214844 16.113281 30.925781 16.222656 31.109375 16.632812 Z M 31.109375 16.632812 "/>
<path style=" stroke:none;fill-rule:nonzero;fill:rgb(0%,0%,0%);fill-opacity:1;" d="M 55.574219 17.128906 C 55.648438 17.40625 55.683594 17.683594 55.480469 17.921875 C 54.957031 18.496094 54.171875 18.679688 53.464844 18.902344 L 53.332031 18.902344 C 53.332031 18.144531 53.519531 17.589844 53.5 16.722656 C 53.949219 16.484375 54.300781 16.632812 54.714844 16.59375 C 55.011719 16.613281 55.351562 16.871094 55.574219 17.128906 Z M 55.574219 17.128906 "/>
<path style=" stroke:none;fill-rule:nonzero;fill:rgb(75.294118%,69.411765%,83.137255%);fill-opacity:1;" d="M 49.972656 17.703125 C 49.785156 18.367188 50.8125 19.417969 49.617188 19.605469 L 49.207031 19.695312 C 49.300781 18.753906 49.523438 17.996094 49.878906 17.222656 C 49.972656 17.40625 49.878906 17.519531 49.972656 17.703125 Z M 55.386719 17.609375 C 55.351562 18.109375 54.863281 18.199219 54.546875 18.460938 L 54.324219 18.496094 C 54.453125 18.21875 54.230469 17.792969 54.488281 17.570312 C 54.734375 17.589844 55.125 17.535156 55.386719 17.609375 Z M 55.386719 17.609375 "/>
<path style=" stroke:none;fill-rule:nonzero;fill:url(#linear8);" d="M 21.160156 17.792969 C 20.972656 18.441406 20.785156 19.105469 20.652344 19.789062 C 19.757812 19.882812 18.933594 19.917969 18.113281 20.101562 L 17.925781 20.269531 C 18.003906 20.804688 17.796875 21.152344 17.925781 21.597656 C 18.265625 21.6875 18.582031 21.449219 18.953125 21.46875 C 19.441406 21.375 19.777344 21.285156 20.261719 21.210938 C 20.058594 21.6875 20.113281 22.335938 19.945312 22.796875 C 19.347656 23.019531 18.601562 22.890625 18.058594 23.242188 C 18.265625 23.59375 18.113281 24.089844 18.414062 24.382812 C 18.636719 24.273438 18.917969 24.238281 19.140625 24.253906 C 19.308594 24.128906 19.550781 24.144531 19.757812 24.089844 C 20.113281 23.921875 20.542969 23.832031 20.878906 23.8125 L 21.421875 25.679688 C 21.011719 25.917969 20.429688 25.957031 19.984375 25.992188 C 18.917969 26.269531 17.742188 26.160156 16.714844 26.304688 C 16.601562 23.777344 16.246094 21.078125 16.136719 18.496094 C 16.359375 18.367188 16.695312 18.382812 16.996094 18.328125 C 18.433594 18.144531 19.777344 17.773438 21.160156 17.792969 Z M 21.160156 17.792969 "/>
<path style=" stroke:none;fill-rule:nonzero;fill:rgb(0%,0%,0%);fill-opacity:1;" d="M 66.140625 18.847656 C 66.199219 19.046875 66.046875 19.273438 66.105469 19.511719 C 66.292969 19.605469 66.574219 19.511719 66.777344 19.605469 C 66.648438 21.835938 66.160156 23.867188 65.976562 26.121094 C 65.730469 26.304688 65.472656 26.140625 65.246094 26.304688 C 65.453125 26.988281 66.550781 27.433594 66.140625 28.246094 C 65.957031 28.78125 65.472656 29.261719 64.890625 29.316406 C 64.480469 29.386719 63.941406 29.203125 63.546875 28.964844 C 63.304688 28.1875 62.035156 27.855469 62.519531 26.914062 C 62.578125 26.359375 63.191406 26.011719 63.675781 25.898438 C 63.734375 25.808594 63.769531 25.714844 63.808594 25.640625 C 63.640625 25.53125 63.191406 25.640625 63.003906 25.546875 C 63.042969 24.773438 63.285156 24.253906 63.285156 23.460938 C 63.453125 23.203125 63.304688 22.816406 63.414062 22.539062 C 63.472656 21.375 63.808594 20.34375 63.808594 19.160156 C 64.015625 19.046875 63.734375 18.902344 63.957031 18.808594 C 64.667969 18.882812 65.488281 18.660156 66.140625 18.847656 Z M 66.140625 18.847656 "/>
<path style=" stroke:none;fill-rule:nonzero;fill:url(#linear9);" d="M 65.917969 19.066406 C 65.710938 21.097656 65.285156 23.203125 65.078125 25.234375 L 63.324219 25.273438 C 63.585938 23.351562 63.699219 21.152344 64.089844 19.160156 C 64.648438 18.992188 65.378906 19.105469 65.917969 19.066406 Z M 65.917969 19.066406 "/>
<path style=" stroke:none;fill-rule:nonzero;fill:rgb(75.294118%,69.411765%,83.137255%);fill-opacity:1;" d="M 56.695312 21.0625 C 56.472656 20.894531 56.207031 20.859375 55.964844 20.765625 C 56.132812 20.617188 56.414062 20.433594 56.601562 20.398438 C 56.769531 20.582031 56.65625 20.839844 56.695312 21.0625 Z M 56.695312 21.0625 "/>
<path style=" stroke:none;fill-rule:nonzero;fill:url(#linear10);" d="M 13.988281 21.0625 C 14.289062 23.167969 14.640625 25.234375 14.886719 27.359375 L 15.015625 27.484375 C 15.648438 27.300781 16.152344 26.820312 16.808594 26.695312 C 17.085938 27.246094 17.421875 27.800781 17.667969 28.375 C 16.339844 28.964844 14.941406 29.371094 13.539062 29.757812 C 13.015625 27.082031 12.679688 24.367188 12.195312 21.6875 C 12.773438 21.46875 13.351562 21.210938 13.988281 21.0625 Z M 13.988281 21.0625 "/>
<path style=" stroke:none;fill-rule:nonzero;fill:rgb(0%,0%,0%);fill-opacity:1;" d="M 72.246094 26.433594 C 72.433594 26.324219 72.417969 26.066406 72.546875 25.898438 C 72.773438 26.546875 72.847656 27.523438 72.996094 28.339844 C 73.777344 28.648438 74.660156 28.78125 75.421875 29.128906 C 75.308594 29.222656 75.160156 29.242188 75.070312 29.351562 C 75.347656 29.589844 75.777344 29.628906 76.058594 29.792969 C 75.179688 30.183594 74.339844 30.644531 73.539062 31.214844 C 73.519531 32.566406 73.890625 33.875 74.078125 35.207031 L 74.039062 35.242188 C 73.203125 34.429688 72.472656 33.582031 71.835938 32.675781 C 70.734375 33.007812 69.671875 33.429688 68.570312 33.78125 C 68.773438 33.449219 68.980469 33.097656 69.183594 32.769531 C 68.851562 32.769531 68.457031 32.933594 68.121094 33.117188 L 67.933594 33.117188 L 70.007812 30.203125 C 69.335938 29.316406 68.664062 28.761719 67.988281 27.929688 C 68.851562 27.855469 69.800781 28.246094 70.679688 28.117188 C 71.148438 27.171875 71.539062 26.195312 71.929688 25.234375 C 72.152344 25.53125 72.007812 26.082031 72.246094 26.433594 Z M 72.246094 26.433594 "/>
<path style=" stroke:none;fill-rule:nonzero;fill:url(#linear11);" d="M 71.929688 25.992188 C 72.007812 26.839844 72.285156 27.617188 72.378906 28.464844 C 73.144531 28.78125 73.984375 28.910156 74.75 29.222656 C 74.113281 29.648438 73.367188 29.925781 72.734375 30.421875 C 72.753906 31.585938 73.035156 32.75 73.183594 33.914062 C 72.828125 33.746094 72.601562 33.378906 72.378906 33.082031 L 71.390625 31.660156 C 70.847656 31.714844 70.304688 32.046875 69.785156 32.230469 L 68.515625 32.675781 C 68.960938 31.714844 69.878906 30.957031 70.269531 29.980469 L 68.476562 28.207031 C 69.203125 28.207031 70.007812 28.355469 70.753906 28.429688 C 71.183594 27.636719 71.558594 26.820312 71.835938 25.992188 Z M 71.929688 25.992188 "/>
<path style=" stroke:none;fill-rule:nonzero;fill:url(#linear12);" d="M 65.023438 26.433594 C 65.226562 26.746094 65.414062 27.171875 65.210938 27.542969 C 65.152344 27.949219 64.777344 28.261719 64.40625 28.375 C 63.789062 28.449219 63.152344 28.339844 62.742188 27.800781 C 62.539062 27.320312 62.726562 26.953125 62.914062 26.527344 C 63.472656 25.957031 64.40625 25.863281 65.023438 26.433594 Z M 65.023438 26.433594 "/>
<path style=" stroke:none;fill-rule:nonzero;fill:rgb(0%,0%,0%);fill-opacity:1;" d="M 8.105469 28.339844 C 8.199219 28.152344 8.179688 27.949219 8.257812 27.765625 C 8.535156 28.523438 8.890625 29.242188 9.320312 29.925781 C 10.121094 29.867188 10.871094 29.539062 11.652344 29.539062 C 11.371094 29.851562 11.09375 30.164062 10.890625 30.515625 C 11.355469 30.554688 11.878906 30.292969 12.363281 30.367188 L 10.402344 32.546875 L 10.402344 32.675781 C 11 33.378906 11.578125 33.988281 12.101562 34.671875 L 12.011719 34.761719 L 12.550781 35.519531 C 11.503906 35.207031 10.273438 34.890625 9.152344 34.539062 C 8.421875 35.445312 7.9375 36.425781 7.136719 37.292969 C 6.964844 36.996094 7.226562 36.570312 7.136719 36.3125 L 6.726562 36.71875 C 6.707031 35.425781 6.929688 34.117188 6.910156 32.859375 C 6.296875 32.453125 5.566406 32.175781 4.894531 31.84375 C 4.914062 31.585938 4.503906 31.605469 4.296875 31.476562 C 5.117188 30.976562 6.128906 30.699219 7.042969 30.328125 L 7.136719 30.203125 C 7.226562 29.1875 7.265625 28.132812 7.433594 27.136719 C 7.660156 27.542969 7.769531 28.023438 8.105469 28.339844 Z M 8.105469 28.339844 "/>
<path style=" stroke:none;fill-rule:nonzero;fill:url(#linear13);" d="M 7.714844 28.152344 C 8.050781 28.871094 8.441406 29.574219 8.871094 30.238281 C 9.601562 30.164062 10.363281 29.886719 11.167969 29.792969 L 9.507812 31.753906 C 9.972656 32.636719 10.871094 33.359375 11.464844 34.191406 C 10.550781 34.117188 9.601562 33.710938 8.648438 33.46875 C 8.402344 33.65625 8.21875 33.988281 8.070312 34.28125 C 7.734375 34.855469 7.414062 35.535156 6.910156 35.960938 C 6.890625 34.742188 7.285156 33.597656 7.078125 32.417969 C 6.390625 32.066406 5.640625 31.734375 4.96875 31.441406 C 5.675781 31.089844 6.445312 30.886719 7.171875 30.589844 C 7.566406 29.832031 7.339844 28.816406 7.527344 27.988281 Z M 7.714844 28.152344 "/>
<path style=" stroke:none;fill-rule:nonzero;fill:rgb(100%,100%,100%);fill-opacity:1;" d="M 69.953125 35.074219 C 71.484375 36.3125 73.703125 37.84375 73.3125 39.988281 C 73.21875 40.226562 72.996094 40.375 72.773438 40.484375 C 72.097656 40.523438 71.632812 40.082031 71.035156 39.949219 C 69.878906 39.617188 68.71875 39.15625 67.488281 39.15625 C 66.367188 38.453125 65.023438 38.085938 64.125 37.015625 C 63.957031 36.8125 64.3125 36.554688 63.996094 36.40625 C 63.734375 36.386719 63.488281 36.515625 63.359375 36.757812 C 63.339844 37.882812 64.628906 38.253906 65.378906 38.839844 C 63.734375 38.289062 62.035156 37.402344 60.183594 37.105469 C 60.015625 37.125 59.851562 37.21875 59.773438 37.382812 C 59.757812 37.605469 60.035156 37.679688 60.183594 37.773438 C 60.652344 37.53125 61.117188 37.824219 61.566406 37.863281 C 62.632812 38.324219 63.789062 38.546875 64.855469 39.007812 C 64.984375 38.972656 65.058594 39.082031 65.152344 39.101562 L 65.078125 39.191406 C 64.386719 39.117188 63.753906 38.824219 63.136719 38.714844 C 62.425781 38.417969 61.660156 38.214844 60.894531 37.992188 C 60.222656 37.863281 59.441406 37.679688 58.746094 37.824219 C 58.503906 37.917969 58.652344 38.140625 58.617188 38.304688 C 59.140625 38.4375 59.8125 38.324219 60.410156 38.527344 C 61.511719 38.640625 62.707031 38.804688 63.734375 39.230469 C 62.742188 39.394531 61.660156 39.507812 60.726562 39.894531 C 59.960938 39.878906 59.308594 40.484375 58.578125 40.523438 C 56.226562 41.207031 53.800781 41.832031 51.933594 43.585938 C 51.558594 40.484375 53.539062 37.515625 56.472656 36.054688 C 57.347656 35.59375 58.375 35.242188 59.328125 34.890625 C 62.050781 34.117188 64.722656 33.800781 67.710938 33.96875 C 68.550781 34.132812 69.242188 34.632812 69.953125 35.074219 Z M 69.953125 35.074219 "/>
<path style=" stroke:none;fill-rule:nonzero;fill:rgb(97.647059%,86.27451%,18.823529%);fill-opacity:1;" d="M 73.949219 42.480469 C 74.210938 42.867188 74.394531 43.441406 74.113281 43.882812 C 74.058594 43.972656 73.984375 43.992188 73.890625 43.972656 C 73.703125 43.199219 73.183594 42.554688 72.601562 41.945312 L 72.546875 41.980469 C 73.203125 42.886719 73.777344 44.03125 73.273438 45.175781 C 72.828125 46.320312 71.597656 47.152344 70.363281 47.167969 C 69.183594 47.152344 68.160156 46.632812 67.355469 45.804688 L 67.355469 45.527344 C 67.597656 45.914062 67.859375 45.65625 68.214844 45.65625 C 68.535156 45.527344 68.90625 45.359375 69.054688 44.992188 C 68.832031 44.863281 68.589844 45.214844 68.347656 45.304688 C 68.140625 45.34375 67.988281 45.433594 67.765625 45.398438 C 67.636719 45.25 67.46875 45.082031 67.320312 45.304688 C 67.28125 45.230469 67.242188 45.175781 67.261719 45.082031 C 67.449219 44.953125 67.558594 45.269531 67.765625 45.214844 C 68.289062 45.175781 68.867188 44.992188 69.335938 44.695312 C 69.523438 44.730469 69.671875 44.9375 69.785156 45.082031 C 69.953125 45.359375 69.597656 45.691406 69.914062 45.933594 C 70.160156 45.953125 70.34375 45.75 70.457031 45.582031 C 70.382812 44.695312 69.390625 44.324219 68.699219 44.066406 C 65.769531 43.070312 62.351562 43.199219 59.996094 40.875 C 59.851562 40.742188 59.757812 40.597656 59.699219 40.429688 C 64.089844 39.0625 69.539062 38.640625 73.3125 41.757812 Z M 73.949219 42.480469 "/>
<path style=" stroke:none;fill-rule:nonzero;fill:rgb(0%,0%,0%);fill-opacity:1;" d="M 66.105469 40.394531 C 66.890625 39.894531 67.746094 40.523438 68.515625 40.707031 C 69.839844 41.390625 71.652344 42.109375 72.0625 43.753906 C 72.097656 44.03125 72.023438 44.25 71.835938 44.417969 L 71.742188 44.417969 C 71.929688 42.5 69.859375 41.628906 68.476562 40.875 C 67.785156 40.742188 67.078125 40.207031 66.367188 40.484375 C 66.609375 40.578125 66.851562 40.652344 67.039062 40.875 C 67.058594 41.058594 66.851562 41.09375 66.722656 41.148438 C 65.113281 39.988281 62.929688 40.171875 61.046875 40.484375 C 60.839844 40.429688 60.726562 40.742188 60.539062 40.558594 C 61.34375 40.097656 62.203125 40.191406 63.097656 39.988281 C 64.164062 40.117188 65.113281 40.082031 66.105469 40.394531 Z M 66.105469 40.394531 "/>
<path style=" stroke:none;fill-rule:nonzero;fill:rgb(97.647059%,86.27451%,18.823529%);fill-opacity:1;" d="M 59.328125 41.1875 C 56.542969 42.867188 56.804688 46.078125 56.472656 48.664062 C 56.339844 49.976562 55.125 50.675781 54.003906 51.027344 C 52.101562 51.488281 50.792969 49.347656 48.796875 49.605469 C 48.234375 49.625 48.476562 50.398438 47.898438 50.363281 C 47.003906 50.34375 45.9375 50.546875 45.078125 50.53125 L 44.949219 50.621094 C 44.480469 50.4375 43.472656 51.007812 43.472656 50.179688 C 43.660156 48.90625 44.59375 47.851562 45.582031 46.984375 C 45.324219 47.003906 45.042969 47.242188 44.816406 47.429688 C 43.828125 48.242188 43.265625 49.457031 43.210938 50.53125 C 42.652344 50.398438 41.847656 50.214844 41.269531 50.363281 C 41.269531 50.011719 41.121094 49.71875 41.007812 49.421875 C 40.859375 47.871094 41.960938 46.523438 43.285156 45.839844 C 43.339844 45.65625 43.136719 45.75 43.0625 45.65625 C 42.148438 46.246094 41.140625 46.855469 40.691406 47.832031 C 40.484375 46.117188 41.847656 44.621094 43.339844 43.808594 C 43.863281 43.476562 44.425781 43.496094 45.042969 43.402344 L 45.171875 43.21875 L 44.984375 43.089844 C 43.359375 43.089844 41.847656 43.199219 40.597656 44.324219 C 40.839844 43.125 41.867188 41.867188 43.15625 41.667969 C 43.902344 41.519531 44.707031 41.742188 45.398438 41.980469 C 47.191406 42.445312 48.738281 43.476562 50.421875 44.195312 C 50.679688 44.234375 51.015625 44.324219 51.351562 44.289062 C 51.484375 44.472656 51.464844 44.621094 51.410156 44.824219 C 51.183594 45.34375 50.550781 45.175781 50.195312 45.398438 C 50.457031 45.566406 50.738281 45.453125 50.996094 45.488281 C 51.503906 45.289062 51.894531 44.863281 51.894531 44.289062 L 51.894531 44.160156 C 53.074219 43.089844 54.398438 42.296875 55.742188 41.722656 C 55.816406 43.421875 54.714844 44.972656 53.203125 45.75 C 52.847656 45.730469 52.492188 46.152344 52.023438 46.0625 C 52.023438 46.136719 52.117188 46.171875 52.15625 46.246094 C 53.277344 46.46875 54.097656 45.582031 54.808594 44.917969 C 55.609375 44.011719 56.171875 42.921875 56.113281 41.628906 C 57.121094 41.261719 58.148438 40.800781 59.195312 40.652344 C 59.253906 40.835938 59.289062 41.003906 59.328125 41.1875 Z M 59.328125 41.1875 "/>
<path style=" stroke:none;fill-rule:nonzero;fill:rgb(0%,0%,0%);fill-opacity:1;" d="M 72.511719 41.886719 C 72.265625 41.722656 71.875 41.464844 71.519531 41.316406 L 71.519531 41.222656 C 71.894531 41.351562 72.210938 41.628906 72.511719 41.886719 Z M 72.511719 41.886719 "/>
<path style=" stroke:none;fill-rule:nonzero;fill:rgb(0%,62.352941%,88.235294%);fill-opacity:1;" d="M 60.503906 42.074219 C 60.636719 42.167969 60.878906 42.167969 60.894531 42.332031 C 60.636719 42.554688 60.425781 42.792969 60.316406 43.089844 C 60.410156 43.183594 60.316406 43.386719 60.503906 43.402344 C 60.746094 43.050781 61.066406 42.664062 61.398438 42.425781 C 61.960938 42.664062 62.539062 42.847656 63.136719 42.960938 C 63.566406 43.253906 63.246094 44.269531 63.996094 44.03125 C 64.179688 43.828125 64.105469 43.585938 63.996094 43.367188 L 63.996094 43.273438 C 64.386719 43.253906 64.683594 43.496094 65.078125 43.53125 C 64.964844 43.660156 64.742188 43.847656 64.535156 43.9375 L 64.21875 44.289062 C 64.628906 44.433594 64.835938 43.863281 65.210938 43.808594 C 65.527344 43.644531 65.863281 43.863281 65.976562 44.160156 C 66.105469 44.585938 66.085938 45.121094 66.140625 45.527344 C 66.273438 45.636719 66.476562 45.875 66.648438 45.65625 L 66.871094 45.214844 C 66.964844 45.988281 67.207031 46.691406 67.167969 47.519531 C 66.816406 47.742188 66.421875 47.5 66.046875 47.429688 L 65.976562 47.167969 C 66.253906 47.039062 66.441406 47.390625 66.777344 47.296875 C 66.890625 47.152344 67.113281 47.058594 67.097656 46.855469 C 67.003906 46.691406 66.796875 46.691406 66.683594 46.765625 C 66.496094 46.929688 66.214844 46.835938 65.976562 46.855469 C 65.882812 46.265625 65.824219 45.636719 65.210938 45.304688 C 64.648438 45.121094 64.050781 45.398438 63.585938 45.75 C 63.265625 44.972656 63.078125 43.828125 62.015625 43.660156 C 61.382812 43.585938 60.839844 44.175781 60.449219 44.640625 C 60.167969 44.695312 59.980469 44.566406 59.773438 44.417969 C 59.457031 44.195312 59.605469 43.460938 59.066406 43.660156 C 58.953125 43.753906 58.914062 43.882812 58.933594 44.03125 C 59.085938 44.324219 59.328125 44.675781 59.644531 44.824219 C 59.867188 44.84375 60.148438 44.9375 60.371094 45.082031 C 60.410156 45.214844 60.222656 45.25 60.222656 45.359375 C 59.699219 45.136719 58.824219 44.953125 58.710938 44.195312 C 58.652344 44.125 58.558594 44.175781 58.484375 44.160156 C 58.28125 44.308594 58.28125 44.546875 58.394531 44.730469 C 58.652344 45.25 59.269531 45.359375 59.738281 45.488281 C 59.421875 45.824219 58.652344 45.15625 58.710938 45.875 C 58.859375 46.136719 59.027344 46.042969 59.195312 46.0625 C 59.535156 45.988281 59.832031 45.839844 60.148438 45.710938 C 60.054688 46.558594 60.035156 47.539062 60.820312 48.148438 C 61.269531 48.535156 61.808594 48.851562 62.425781 48.71875 L 62.742188 48.535156 C 62.761719 48.609375 62.914062 48.777344 62.78125 48.886719 C 62.726562 48.960938 62.558594 48.921875 62.613281 49.070312 C 63.058594 49.238281 63.640625 48.941406 64.125 49.164062 C 64.515625 49.570312 64.742188 50.121094 64.574219 50.714844 C 64.515625 50.917969 64.292969 51.085938 64.125 51.195312 C 63.246094 51.417969 62.519531 50.972656 61.847656 50.585938 C 61.699219 50.695312 61.511719 50.917969 61.714844 51.066406 C 62.164062 51.765625 62.835938 51.160156 63.359375 51.636719 C 63.921875 51.765625 64.515625 51.65625 64.796875 51.101562 C 64.984375 50.65625 65.226562 50.050781 64.925781 49.550781 C 65.507812 49.332031 65.789062 48.71875 65.917969 48.183594 C 66.273438 48.425781 66.496094 49.054688 67.003906 48.886719 C 67.078125 48.8125 67.167969 48.757812 67.132812 48.628906 C 66.761719 48.277344 66.160156 48.203125 65.976562 47.703125 C 66.308594 47.832031 66.777344 47.964844 67.167969 48.09375 C 67.226562 49.902344 66.964844 51.710938 65.433594 52.746094 C 62.855469 54.113281 59.535156 53.539062 57.179688 52.082031 L 55.835938 50.972656 C 57.496094 49.421875 57.140625 46.875 57.179688 44.730469 C 57.421875 43.441406 58.335938 42.257812 59.515625 41.5 C 59.851562 41.574219 60.148438 41.925781 60.503906 42.074219 Z M 66.722656 44.289062 L 66.722656 44.695312 C 66.609375 44.382812 66.441406 44.085938 66.273438 43.808594 C 66.648438 43.714844 66.609375 44.105469 66.722656 44.289062 Z M 66.722656 44.289062 "/>
<path style=" stroke:none;fill-rule:nonzero;fill:rgb(100%,100%,100%);fill-opacity:1;" d="M 63.324219 45.804688 C 63.285156 46.707031 63.359375 47.945312 62.425781 48.40625 C 62.074219 48.574219 61.585938 48.480469 61.269531 48.316406 C 61.15625 48.054688 60.820312 48.039062 60.894531 47.703125 C 61.175781 47.464844 61.363281 47.207031 61.4375 46.910156 C 61.472656 46.503906 61.34375 45.988281 60.953125 45.75 C 60.765625 45.75 60.558594 45.730469 60.410156 45.839844 C 60.425781 45.082031 60.839844 44.453125 61.4375 43.972656 C 61.792969 43.921875 62.109375 43.789062 62.425781 44.03125 C 62.984375 44.511719 63.152344 45.136719 63.324219 45.804688 Z M 63.324219 45.804688 "/>
<path style=" stroke:none;fill-rule:nonzero;fill:rgb(97.647059%,86.27451%,18.823529%);fill-opacity:1;" d="M 68.925781 44.472656 C 68.628906 44.640625 68.214844 44.863281 67.804688 44.769531 C 68.175781 44.695312 68.496094 44.363281 68.886719 44.417969 Z M 68.925781 44.472656 "/>
<path style=" stroke:none;fill-rule:nonzero;fill:rgb(0%,0%,0%);fill-opacity:1;" d="M 16.453125 45.359375 C 16.601562 45.636719 16.734375 46.007812 16.675781 46.320312 C 16.585938 46.46875 16.359375 46.613281 16.171875 46.503906 C 15.875 46.136719 15.910156 45.582031 15.425781 45.304688 C 14.117188 45.136719 13.371094 46.652344 12.738281 47.519531 C 12.921875 46.503906 13.839844 45.414062 14.789062 44.769531 C 15.089844 44.675781 15.445312 44.585938 15.78125 44.695312 C 16.042969 44.804688 16.324219 45.082031 16.453125 45.359375 Z M 16.453125 45.359375 "/>
<path style=" stroke:none;fill-rule:nonzero;fill:rgb(100%,100%,100%);fill-opacity:1;" d="M 65.152344 45.65625 C 65.917969 46.558594 65.75 47.832031 65.378906 48.851562 C 65.226562 49.054688 65.113281 49.257812 64.855469 49.292969 C 64.703125 48.921875 64.3125 48.777344 63.957031 48.71875 C 63.976562 48.277344 64.144531 47.832031 63.640625 47.554688 L 63.414062 47.519531 C 63.828125 46.964844 63.246094 45.96875 64.089844 45.617188 C 64.460938 45.414062 64.816406 45.398438 65.152344 45.65625 Z M 65.152344 45.65625 "/>
<path style=" stroke:none;fill-rule:nonzero;fill:rgb(0%,0%,0%);fill-opacity:1;" d="M 53.648438 46.632812 C 53.667969 46.652344 53.6875 46.691406 53.726562 46.691406 C 53.800781 46.488281 53.929688 46.691406 54.003906 46.632812 C 54.097656 46.835938 53.871094 46.964844 53.726562 46.984375 C 53.222656 47.152344 52.605469 47.277344 52.023438 47.039062 C 51.859375 47.039062 51.632812 46.855469 51.410156 46.855469 C 49.988281 46.191406 48.496094 45.34375 46.925781 45.875 C 45.582031 46.171875 44.089844 47.078125 43.605469 48.441406 C 43.527344 48.519531 43.433594 48.664062 43.339844 48.535156 C 43.398438 48.09375 43.714844 47.742188 43.921875 47.335938 C 45.117188 45.914062 47.058594 45.324219 48.851562 45.617188 C 48.945312 45.75 49.113281 45.730469 49.242188 45.75 C 50.605469 46.246094 52.023438 47.132812 53.554688 46.726562 Z M 53.648438 46.632812 "/>
<path style=" stroke:none;fill-rule:nonzero;fill:rgb(100%,100%,100%);fill-opacity:1;" d="M 60.820312 46.632812 C 60.933594 46.855469 60.820312 47.113281 60.636719 47.207031 C 60.503906 47.1875 60.351562 47.132812 60.316406 46.984375 C 60.242188 46.746094 60.425781 46.597656 60.503906 46.414062 C 60.691406 46.339844 60.691406 46.558594 60.820312 46.632812 Z M 60.820312 46.632812 "/>
<path style=" stroke:none;fill-rule:nonzero;fill:rgb(0%,0%,0%);fill-opacity:1;" d="M 12.550781 47.039062 C 12.328125 47.242188 12.214844 47.613281 11.878906 47.648438 C 11.800781 47.574219 11.671875 47.480469 11.785156 47.390625 C 12.011719 47.167969 12.289062 47.019531 12.550781 47.039062 Z M 12.550781 47.039062 "/>
<path style=" stroke:none;fill-rule:nonzero;fill:rgb(0%,62.352941%,88.235294%);fill-opacity:1;" d="M 75.386719 47.925781 C 75.496094 48.460938 75.402344 49.070312 74.9375 49.382812 C 74.152344 49.367188 73.460938 49.550781 72.773438 49.734375 C 72.675781 49.550781 72.996094 49.238281 72.699219 49.070312 C 72.398438 49.199219 72.714844 49.644531 72.417969 49.699219 C 72.339844 49.515625 72.136719 49.402344 71.96875 49.332031 L 71.835938 49.476562 C 71.914062 49.71875 72.265625 49.589844 72.324219 49.863281 C 71.949219 49.996094 71.484375 49.957031 71.128906 50.140625 C 71.035156 50.324219 71.277344 50.304688 71.351562 50.398438 C 72.339844 50.269531 73.367188 50.070312 74.339844 50.398438 C 74.582031 50.640625 74.472656 51.085938 74.433594 51.378906 C 74.265625 51.746094 73.871094 52.136719 73.445312 52.175781 C 72.863281 52.023438 72.417969 51.527344 71.800781 51.472656 C 71.332031 51.4375 70.792969 51.4375 70.585938 51.859375 C 70.867188 52.117188 71.238281 51.765625 71.613281 51.824219 C 71.613281 52.023438 71.296875 52.210938 71.484375 52.394531 C 71.855469 52.414062 71.632812 51.839844 72.0625 51.988281 C 72.660156 52.636719 72.304688 53.652344 72.023438 54.296875 C 71.726562 54.722656 71.089844 54.609375 70.621094 54.574219 C 70.53125 54.539062 70.476562 54.445312 70.363281 54.480469 L 70.230469 54.609375 C 70.492188 55.035156 71.035156 54.925781 71.425781 54.867188 C 72.585938 54.539062 72.511719 53.28125 72.601562 52.300781 C 72.976562 52.246094 73.21875 52.875 73.628906 52.707031 L 74.527344 51.988281 C 75.308594 52.210938 76.132812 52.007812 76.859375 51.824219 C 77.011719 51.824219 77.160156 51.988281 77.175781 52.136719 C 77.234375 52.800781 76.898438 53.390625 76.320312 53.726562 C 75.367188 54.09375 74.507812 53.464844 73.628906 53.242188 C 73.5 53.148438 73.59375 52.894531 73.367188 52.929688 C 73.183594 53.207031 73.332031 53.59375 73.21875 53.910156 C 73.050781 54.574219 72.789062 55.367188 72.0625 55.679688 C 71.050781 56.011719 70.121094 55.53125 69.410156 54.925781 C 69.296875 54.867188 69.222656 54.980469 69.148438 55.050781 C 69.089844 55.257812 69.242188 55.367188 69.277344 55.53125 C 65.804688 55.976562 62.238281 56.179688 58.972656 57.140625 L 58.933594 57.175781 C 59.027344 57.324219 59.234375 57.433594 59.421875 57.453125 C 59.421875 57.710938 59.195312 57.933594 58.972656 58.0625 C 58.542969 58.285156 57.890625 58.246094 57.496094 57.96875 C 56.917969 57.601562 56.917969 56.863281 56.953125 56.34375 C 57.234375 55.164062 58.464844 54.296875 59.476562 53.726562 C 59.496094 53.816406 59.441406 53.851562 59.382812 53.910156 C 59.550781 54.222656 59.773438 53.835938 59.996094 53.910156 C 60.316406 53.574219 60.671875 53.964844 61.046875 53.910156 C 62.964844 54.222656 64.949219 53.871094 66.421875 52.707031 L 69.148438 52.394531 C 69.203125 52.542969 69.019531 52.910156 69.335938 53.023438 C 69.449219 53.058594 69.484375 52.929688 69.558594 52.875 C 69.953125 51.25 70.140625 49.144531 72.023438 48.5 C 72.828125 48.132812 73.648438 47.761719 74.527344 47.519531 C 74.863281 47.519531 75.214844 47.574219 75.386719 47.925781 Z M 75.386719 47.925781 "/>
<path style=" stroke:none;fill-rule:nonzero;fill:rgb(0%,62.352941%,88.235294%);fill-opacity:1;" d="M 77.175781 48.371094 C 77.253906 48.683594 77.253906 48.996094 77.121094 49.292969 C 76.5625 50.050781 75.664062 50.253906 74.9375 50.714844 C 74.621094 50.492188 74.660156 49.917969 74.210938 49.828125 C 74.84375 49.792969 75.628906 49.828125 75.871094 49.109375 C 76.132812 48.792969 75.925781 48.296875 76.058594 47.925781 C 76.507812 47.871094 76.953125 47.945312 77.175781 48.371094 Z M 77.175781 48.371094 "/>
<path style=" stroke:none;fill-rule:nonzero;fill:rgb(100%,100%,100%);fill-opacity:1;" d="M 63.453125 48.40625 C 63.488281 48.535156 63.433594 48.648438 63.324219 48.71875 C 62.984375 48.792969 62.964844 48.441406 63.058594 48.222656 C 63.171875 47.945312 63.472656 48.183594 63.453125 48.40625 Z M 63.453125 48.40625 "/>
<path style=" stroke:none;fill-rule:nonzero;fill:rgb(0%,0%,0%);fill-opacity:1;" d="M 15.59375 48.5 C 15.632812 48.683594 15.726562 48.851562 15.6875 49.070312 C 15.574219 49.257812 15.351562 49.292969 15.203125 49.199219 C 15.089844 48.886719 14.714844 48.703125 14.378906 48.851562 C 13.746094 49.125 13.296875 49.882812 12.679688 50.269531 C 12.664062 50.085938 12.867188 49.863281 12.996094 49.699219 C 13.632812 48.996094 14.363281 48.148438 15.277344 48.183594 Z M 15.59375 48.5 "/>
<path style=" stroke:none;fill-rule:nonzero;fill:rgb(0%,62.352941%,88.235294%);fill-opacity:1;" d="M 40.597656 49.773438 C 41.027344 50.140625 40.914062 50.789062 40.878906 51.285156 C 40.746094 51.675781 40.484375 51.914062 40.148438 52.175781 C 39.027344 52.523438 38.300781 51.324219 37.160156 51.859375 C 37.011719 51.953125 37.011719 52.082031 37.011719 52.210938 C 36.300781 52.707031 35.742188 53.429688 35.667969 54.261719 C 35.050781 54.628906 35.015625 55.386719 35.089844 55.941406 C 35.292969 56.476562 35.703125 57.105469 36.339844 57.140625 C 36.527344 57.121094 36.84375 57.195312 37.011719 57.046875 C 37.105469 57.269531 36.621094 57.34375 36.9375 57.527344 C 37.496094 57.03125 37.609375 58.449219 38.003906 57.710938 C 37.945312 57.03125 37.179688 56.585938 37.460938 55.808594 C 37.535156 55.480469 37.910156 55.292969 38.191406 55.183594 C 38.5625 55.128906 39.101562 55.050781 39.308594 55.496094 C 39.550781 56.253906 40.09375 57.25 39.308594 57.894531 C 39.121094 57.804688 39.085938 58.0625 38.953125 58.0625 C 37.496094 58.414062 36.039062 57.824219 35.144531 56.640625 C 34.996094 56.417969 34.882812 56.179688 34.640625 55.976562 C 34.339844 55.921875 34.378906 56.253906 34.191406 56.34375 C 32.511719 56.53125 31.019531 57.046875 29.394531 57.527344 C 27.394531 56.621094 25.246094 56.03125 23.046875 55.976562 L 22.859375 56.160156 L 22.953125 56.253906 C 23.753906 56.402344 24.464844 56.476562 25.191406 56.695312 C 25.585938 56.714844 26.050781 57.011719 26.480469 56.957031 C 26.835938 57.25 27.359375 57.121094 27.695312 57.398438 C 27.789062 57.417969 27.976562 57.492188 28.105469 57.527344 C 29.824219 58.097656 31.449219 59.09375 32.585938 60.5 C 31.074219 60.261719 29.488281 60.871094 28.046875 61.351562 C 25.957031 62.363281 24.074219 64.042969 22.859375 66.132812 C 22.613281 64.929688 22.296875 63.675781 21.605469 62.625 C 21.792969 62.625 21.960938 62.496094 22.054688 62.328125 C 22.167969 62.03125 21.851562 62.011719 21.738281 61.882812 C 18.191406 61.660156 14.902344 62.050781 11.523438 62.234375 C 11.464844 61.8125 11.429688 61.402344 11.074219 61.128906 C 10.441406 61.609375 11.113281 62.308594 11.019531 62.9375 C 11.167969 63.695312 11.390625 64.597656 10.796875 65.28125 C 9.710938 66.757812 8.050781 67.976562 6.183594 67.941406 C 5.789062 67.589844 5.285156 67.144531 5.566406 66.539062 C 6.425781 65.578125 7.863281 65.632812 8.703125 64.707031 C 8.292969 64.542969 8.03125 65.117188 7.582031 64.839844 C 6.613281 64.5625 5.527344 64.007812 5.117188 62.992188 C 5.023438 62.917969 4.96875 62.773438 4.839844 62.808594 C 4.707031 62.863281 4.746094 63.046875 4.800781 63.121094 L 5.417969 64.042969 L 3.363281 66.132812 C 2.933594 66.078125 2.449219 66.019531 2.277344 65.558594 C 2.1875 65.007812 2.410156 64.488281 2.691406 64.042969 C 3.457031 62.808594 4.707031 61.773438 5.285156 60.460938 C 5.433594 60.425781 5.527344 60.222656 5.417969 60.113281 C 4.390625 59.113281 2.09375 60.90625 1.925781 58.855469 C 1.886719 58.285156 2.167969 57.785156 2.652344 57.453125 C 2.972656 57.289062 3.382812 57.214844 3.773438 57.308594 C 4.164062 57.804688 4.652344 58.285156 5.25 58.414062 C 6.050781 58.007812 7.324219 58.046875 8.070312 58.558594 C 8.386719 58.765625 8.609375 59.152344 9.003906 59.171875 L 9.191406 59.003906 L 8.925781 58.691406 C 10.441406 58.632812 11.859375 58.632812 13.449219 58.507812 C 15.484375 58.46875 17.910156 58.433594 19.816406 58.191406 C 19.925781 58.136719 19.890625 58.027344 19.910156 57.933594 C 19.796875 57.675781 19.460938 57.769531 19.273438 57.617188 C 20.003906 57.289062 20.691406 56.902344 21.382812 56.476562 C 21.625 56.492188 21.867188 56.863281 22.148438 56.789062 C 22.425781 56.621094 22.148438 56.402344 22.148438 56.199219 C 21.867188 56.011719 22.242188 55.828125 22.316406 55.71875 C 22.484375 55.421875 22.671875 55.570312 22.953125 55.496094 C 23.492188 55.3125 23.996094 55 24.519531 54.742188 C 27.789062 54.039062 30.925781 53.429688 34.285156 52.929688 L 34.472656 52.929688 C 34.453125 53.023438 34.324219 53.078125 34.378906 53.1875 C 34.433594 53.335938 34.640625 53.28125 34.734375 53.242188 C 35.3125 52.226562 35.667969 50.972656 36.753906 50.304688 C 37.386719 49.9375 37.984375 50.640625 38.582031 50.398438 C 39.273438 50.214844 39.757812 49.015625 40.597656 49.773438 Z M 40.597656 49.773438 "/>
<path style=" stroke:none;fill-rule:nonzero;fill:rgb(0%,0%,0%);fill-opacity:1;" d="M 25.734375 49.957031 C 25.753906 50.179688 25.734375 50.269531 25.640625 50.4375 C 25.511719 50.566406 25.359375 50.4375 25.324219 50.304688 C 25.339844 50.195312 25.304688 50.011719 25.136719 50.085938 C 24.855469 50.160156 24.503906 50.289062 24.425781 50.585938 C 24.597656 50.789062 24.835938 50.972656 24.742188 51.285156 C 23.792969 51.621094 24.613281 52.429688 24.109375 52.964844 C 23.773438 53.335938 23.363281 53.539062 22.894531 53.632812 C 22.800781 53.726562 22.765625 53.851562 22.636719 53.945312 C 22.539062 53.890625 22.390625 53.910156 22.316406 53.761719 C 22.242188 53.558594 22.222656 53.167969 22.539062 53.148438 C 22.914062 53.167969 23.289062 53.316406 23.566406 53.023438 C 23.886719 52.671875 24.089844 52.210938 23.941406 51.730469 C 23.867188 51.546875 23.714844 51.488281 23.566406 51.378906 C 22.914062 51.285156 22.464844 52.042969 21.960938 52.359375 L 21.960938 52.210938 C 22.914062 51.285156 24.109375 50.324219 25.324219 49.734375 C 25.511719 49.71875 25.734375 49.753906 25.734375 49.957031 Z M 62.835938 50.269531 L 62.835938 50.363281 C 62.484375 50.214844 62.050781 50.179688 61.660156 50.269531 C 61.640625 50.195312 61.527344 50.140625 61.566406 50.050781 C 61.773438 49.792969 62.164062 49.863281 62.425781 49.917969 C 62.578125 49.996094 62.742188 50.105469 62.835938 50.269531 Z M 62.835938 50.269531 "/>
<path style=" stroke:none;fill-rule:nonzero;fill:rgb(0%,62.352941%,88.235294%);fill-opacity:1;" d="M 54.941406 51.378906 L 54.941406 51.417969 C 53.464844 52.191406 52.289062 53.316406 51.089844 54.574219 C 48.851562 54.371094 46.347656 54.242188 44.089844 54.167969 C 44.035156 54.058594 43.996094 53.945312 43.886719 53.851562 C 43.511719 54.019531 43.472656 54.480469 43.378906 54.703125 C 42.855469 54.148438 42.238281 53.667969 41.492188 53.761719 C 41.214844 53.796875 41.007812 54.277344 40.691406 53.984375 C 40.1875 53.871094 39.8125 53.726562 39.308594 53.945312 C 38.953125 54.09375 38.785156 54.445312 38.542969 54.703125 C 38.171875 54.703125 37.722656 54.792969 37.386719 55.015625 C 36.957031 55.386719 36.898438 55.976562 36.882812 56.476562 C 36.660156 56.714844 36.414062 56.753906 36.113281 56.640625 C 35.613281 56.457031 35.445312 55.808594 35.40625 55.273438 C 36.171875 54.589844 37.199219 54.3125 38.132812 53.945312 C 38.542969 53.835938 38.898438 53.652344 39.253906 53.464844 C 39.140625 53.390625 38.839844 53.390625 38.671875 53.464844 C 38.710938 53.316406 38.65625 53.222656 38.542969 53.148438 C 38.207031 53.207031 38.226562 53.59375 37.964844 53.726562 C 37.609375 53.835938 37.273438 53.964844 36.9375 54.039062 C 36.640625 54.261719 36.265625 54.296875 35.984375 54.519531 C 36.246094 54.113281 36.804688 53.910156 37.234375 53.5 C 37.574219 53.464844 37.777344 53.148438 38.097656 53.097656 C 38.601562 53.097656 38.65625 52.175781 39.214844 52.707031 C 40.054688 52.855469 40.597656 52.414062 41.046875 51.824219 C 41.417969 51.488281 41.253906 50.585938 41.996094 50.75 C 42.746094 50.734375 43.265625 51.269531 43.921875 51.507812 C 44.015625 51.453125 44.128906 51.4375 44.183594 51.324219 L 44.015625 51.066406 C 44.238281 50.9375 44.6875 51.160156 44.910156 50.882812 C 44.984375 51.066406 45.078125 50.898438 45.171875 50.882812 C 46.910156 50.789062 48.796875 50.769531 50.550781 50.53125 C 51.894531 51.488281 53.277344 51.695312 54.941406 51.378906 Z M 54.941406 51.378906 "/>
<path style=" stroke:none;fill-rule:nonzero;fill:rgb(0%,0%,0%);fill-opacity:1;" d="M 17.125 51.695312 C 17.144531 51.859375 17.273438 52.042969 17.164062 52.210938 C 16.996094 52.375 16.882812 52.117188 16.714844 52.175781 L 15.59375 53.410156 C 15.554688 54.757812 18.265625 55.183594 17.125 56.695312 C 16.433594 57.378906 15.484375 57.433594 14.605469 57.308594 C 13.316406 57.085938 11.933594 56.492188 11.113281 55.273438 C 10.722656 55.203125 10.402344 55.402344 10.046875 55.273438 C 9.824219 55.367188 10.140625 55.847656 9.730469 55.71875 C 9.507812 55.605469 9.46875 55.421875 9.378906 55.238281 C 9.339844 55.050781 9.378906 54.886719 9.542969 54.792969 C 9.730469 54.8125 9.878906 54.90625 9.992188 55.050781 C 12.644531 55.203125 14.789062 54.039062 16.546875 52.136719 C 16.414062 51.933594 16.285156 51.695312 16.398438 51.472656 C 16.640625 51.160156 16.996094 51.4375 17.125 51.695312 Z M 17.125 51.695312 "/>
<path style=" stroke:none;fill-rule:nonzero;fill:rgb(0%,62.352941%,88.235294%);fill-opacity:1;" d="M 55.703125 52.523438 C 55.949219 52.429688 56.039062 52.191406 56.058594 51.953125 C 56.300781 52.042969 56.5625 52.191406 56.730469 52.359375 C 57.199219 52.597656 57.628906 52.949219 58.132812 53.097656 C 56.917969 53.261719 56.113281 54.589844 54.996094 55.050781 C 54.601562 55.144531 54.339844 54.941406 54.097656 54.703125 C 53.648438 54.148438 53.949219 53.59375 54.171875 53.023438 C 54.511719 52.429688 55.050781 51.878906 55.609375 51.472656 C 55.949219 51.785156 55.125 52.265625 55.703125 52.523438 Z M 55.703125 52.523438 "/>
<path style=" stroke:none;fill-rule:nonzero;fill:rgb(100%,100%,100%);fill-opacity:1;" d="M 53.554688 54.425781 C 53.78125 54.90625 54.265625 55.273438 54.769531 55.367188 C 56.003906 55.257812 56.542969 53.796875 57.683594 53.464844 C 58.1875 53.261719 58.859375 53.242188 59.195312 53.632812 C 57.984375 54.3125 56.730469 55.480469 56.507812 56.863281 C 56.507812 57.472656 56.601562 58.117188 57.234375 58.375 C 57.871094 58.691406 58.765625 58.597656 59.289062 58.117188 L 59.515625 57.894531 C 59.476562 59.320312 58.523438 61.292969 59.960938 62.457031 L 59.960938 62.585938 C 59.644531 62.714844 59.328125 62.515625 59.066406 62.773438 C 59.308594 63.695312 60.261719 64.285156 61.175781 64.394531 C 61.511719 64.101562 62.089844 63.839844 62.164062 63.34375 C 61.863281 63.101562 61.585938 62.625 61.117188 62.679688 L 60.988281 62.808594 C 61.289062 62.9375 61.621094 63.066406 61.792969 63.378906 C 61.792969 63.75 61.34375 63.898438 61.117188 64.136719 C 60.316406 64.15625 59.605469 63.640625 59.195312 62.9375 C 59.382812 62.792969 59.699219 62.84375 59.925781 62.902344 C 60.074219 63.066406 59.960938 63.34375 60.222656 63.472656 C 60.425781 63.472656 60.652344 63.398438 60.726562 63.214844 C 60.726562 62.289062 59.550781 61.882812 59.605469 60.941406 C 60.636719 60.90625 61.714844 60.980469 62.613281 61.386719 C 62.464844 61.660156 61.941406 61.902344 62.203125 62.328125 C 62.578125 62.976562 63.285156 63.269531 63.808594 63.730469 C 63.714844 64.578125 63.058594 65.410156 62.238281 65.726562 C 61.714844 66.019531 61.417969 65.394531 60.953125 65.503906 C 60.089844 65.746094 59.886719 67.128906 58.839844 66.796875 C 57.945312 66.207031 57.496094 64.726562 56.191406 64.894531 C 53.929688 64.929688 52.472656 67.070312 50.140625 66.832031 C 48.980469 66.609375 49.542969 65.058594 48.441406 64.800781 C 47.394531 64.820312 46.21875 64.746094 45.527344 63.824219 C 45.359375 63.511719 45.226562 63.160156 45.210938 62.773438 C 45.769531 62.144531 46.777344 62.402344 47.152344 61.515625 C 47.058594 60.59375 46.105469 59.910156 46.480469 58.910156 C 47.113281 58.96875 47.859375 58.800781 48.496094 58.820312 C 48.386719 60.113281 48.085938 61.535156 48.570312 62.84375 C 48.777344 62.902344 48.890625 62.660156 48.980469 62.550781 C 48.347656 58.210938 50.921875 54.128906 54.675781 51.988281 L 54.769531 51.914062 C 54.117188 52.652344 53.390625 53.410156 53.554688 54.425781 Z M 8.03125 53.632812 L 8.03125 53.945312 C 7.621094 53.964844 7.117188 53.964844 6.761719 53.726562 C 6.089844 53.261719 6.371094 52.578125 6.5 51.953125 C 6.648438 52.617188 7.359375 53.335938 8.03125 53.632812 Z M 8.03125 53.632812 "/>
<path style=" stroke:none;fill-rule:nonzero;fill:rgb(0%,62.352941%,88.235294%);fill-opacity:1;" d="M 38.542969 52.523438 C 38.488281 52.652344 38.394531 52.542969 38.285156 52.617188 C 37.550781 52.929688 36.863281 53.390625 36.171875 53.761719 C 36.394531 53.148438 36.898438 52.617188 37.550781 52.429688 C 37.609375 52.117188 37.984375 52.320312 38.191406 52.265625 C 38.285156 52.375 38.449219 52.375 38.542969 52.523438 Z M 42.671875 54.480469 C 43.101562 54.925781 43.210938 55.386719 43.117188 55.976562 C 43.023438 56.382812 42.597656 56.695312 42.222656 56.789062 C 42.351562 55.902344 41.847656 55.070312 41.234375 54.390625 L 41.363281 54.261719 L 41.417969 54.296875 C 41.53125 54.078125 41.941406 54.167969 42.164062 54.203125 Z M 41.269531 55.015625 C 41.625 55.515625 41.734375 56.011719 41.644531 56.640625 C 41.457031 57.011719 41.082031 57.433594 40.691406 57.527344 C 40.558594 57.566406 40.335938 57.507812 40.203125 57.398438 C 40.132812 56.457031 40.074219 55.328125 39.214844 54.742188 C 39.308594 54.390625 39.683594 54.371094 39.925781 54.203125 C 40.449219 54.277344 40.914062 54.554688 41.269531 55.015625 Z M 41.269531 55.015625 "/>
<path style=" stroke:none;fill-rule:nonzero;fill:rgb(97.647059%,86.27451%,18.823529%);fill-opacity:1;" d="M 48.214844 54.867188 C 48.550781 55.328125 49.113281 56.160156 49.785156 56.03125 C 49.824219 55.957031 49.914062 55.902344 49.878906 55.808594 C 49.429688 55.570312 48.816406 55.441406 48.628906 54.867188 C 49.261719 54.777344 49.671875 55.273438 50.101562 55.589844 C 49.988281 55.992188 49.671875 56.308594 49.464844 56.695312 C 49.242188 56.992188 49.242188 57.398438 48.945312 57.675781 C 47.695312 57.214844 46.367188 56.476562 45.847656 55.144531 L 45.714844 55.015625 C 45.507812 55.109375 45.398438 55.292969 45.527344 55.496094 C 45.9375 56.234375 46.554688 56.605469 47.191406 57.175781 C 46.070312 56.84375 44.707031 56.125 44.5 54.832031 C 45.789062 54.722656 46.925781 54.867188 48.214844 54.867188 Z M 48.214844 54.867188 "/>
<path style=" stroke:none;fill-rule:nonzero;fill:rgb(80%,11.764706%,27.843137%);fill-opacity:1;" d="M 16.042969 56.03125 C 16.210938 56.050781 16.324219 56.085938 16.453125 55.941406 C 16.324219 55.71875 16.136719 55.480469 16.359375 55.238281 C 16.601562 55.292969 16.789062 55.480469 16.996094 55.679688 C 16.996094 55.902344 17.144531 56.125 17.035156 56.34375 C 16.621094 56.808594 16.078125 56.917969 15.464844 56.863281 C 15.203125 56.621094 15.203125 56.21875 15.277344 55.902344 C 15.371094 55.480469 15.835938 55.402344 16.097656 55.089844 C 16.136719 55.347656 15.59375 55.753906 16.042969 56.03125 Z M 16.042969 56.03125 "/>
<path style=" stroke:none;fill-rule:nonzero;fill:rgb(97.647059%,86.27451%,18.823529%);fill-opacity:1;" d="M 61.886719 57.675781 C 62.667969 58.375 63.734375 58.96875 64.796875 58.46875 C 64.554688 58.96875 64.050781 59.539062 63.453125 59.578125 C 62.855469 59.707031 62.296875 59.539062 61.792969 59.300781 C 61.734375 59.394531 61.585938 59.300781 61.527344 59.445312 C 62.203125 59.949219 63.398438 60 64.125 59.578125 C 64.425781 59.375 64.722656 59.152344 65.023438 58.949219 C 65.039062 59.890625 64.667969 60.796875 63.808594 61.386719 C 63.527344 61.625 63.152344 61.660156 62.78125 61.699219 C 62.800781 61.460938 63.210938 61.367188 63.136719 61.074219 C 62.128906 60.574219 60.785156 60.796875 59.605469 60.683594 C 59.402344 60.445312 59.605469 60.148438 59.605469 59.890625 C 59.851562 59.761719 60.054688 60.074219 60.277344 60.148438 C 61.230469 60.519531 62.410156 60.757812 63.453125 60.460938 L 63.453125 60.410156 C 62.148438 60.335938 60.746094 60.371094 59.867188 59.355469 C 59.644531 58.707031 60.089844 58.136719 60.148438 57.492188 C 60.316406 57.140625 60.859375 57.269531 61.175781 57.046875 C 61.605469 56.902344 61.640625 57.472656 61.886719 57.675781 Z M 61.886719 57.675781 "/>
<path style=" stroke:none;fill-rule:nonzero;fill:rgb(100%,100%,100%);fill-opacity:1;" d="M 33.484375 61.386719 C 33.929688 62.273438 33.988281 63.601562 33.425781 64.453125 C 32.808594 65.410156 31.839844 64.636719 30.960938 64.929688 C 30.570312 65.007812 29.972656 65.058594 29.671875 64.617188 C 29.578125 64.597656 29.394531 64.578125 29.320312 64.707031 C 29.242188 64.894531 29.46875 64.949219 29.542969 65.058594 C 29.207031 65.359375 28.628906 65.023438 28.328125 65.429688 L 28.496094 65.597656 C 30.328125 65.339844 32.492188 65.152344 34.285156 65.871094 C 34.753906 66.078125 35.40625 66.445312 35.5 67.019531 C 35.816406 68.570312 34.378906 69.492188 33.390625 70.433594 C 33.109375 70.746094 32.570312 70.820312 32.492188 71.265625 C 32.570312 71.429688 32.753906 71.578125 32.941406 71.578125 C 34.417969 70.5625 35.703125 69.125 36.210938 67.460938 C 36.136719 67.347656 36.191406 67.203125 36.171875 67.054688 C 37.273438 66.777344 38.765625 67.070312 39.535156 68.089844 C 40.503906 69.324219 40 71.152344 39.441406 72.519531 C 38.171875 74.734375 35.816406 75.878906 33.519531 76.414062 C 31.222656 76.710938 28.308594 76.878906 26.890625 74.734375 C 26.386719 73.8125 26.109375 72.667969 26.628906 71.671875 C 27.265625 70.65625 28.367188 69.953125 29.488281 69.710938 C 29.226562 69.972656 28.832031 70.339844 28.910156 70.65625 C 29.003906 70.878906 29.171875 70.726562 29.320312 70.691406 C 29.730469 70.433594 30.011719 69.417969 30.664062 69.804688 C 30.792969 69.84375 30.886719 69.933594 31.054688 69.898438 C 31.109375 69.695312 31.503906 69.601562 31.371094 69.324219 C 31.222656 69.160156 31 69.125 30.832031 69.140625 C 30.71875 69.289062 30.644531 69.050781 30.515625 69.105469 C 29.019531 69.125 27.621094 69.898438 26.035156 69.988281 C 24.894531 69.84375 23.792969 69.066406 23.269531 68.035156 C 23.046875 67.570312 22.726562 66.960938 23.046875 66.445312 C 25.042969 62.917969 28.871094 60.296875 32.753906 60.777344 C 33.015625 60.796875 33.261719 61.128906 33.484375 61.386719 Z M 33.484375 61.386719 "/>
<path style=" stroke:none;fill-rule:nonzero;fill:rgb(0%,0%,0%);fill-opacity:1;" d="M 9.449219 60.851562 C 8.871094 61.128906 8.367188 61.71875 8.257812 62.328125 C 8.179688 63.121094 8.496094 63.765625 8.835938 64.394531 L 8.777344 64.453125 C 8.085938 63.65625 7.714844 62.382812 8.199219 61.441406 C 8.515625 60.980469 9.003906 60.851562 9.449219 60.851562 Z M 56.917969 61.957031 C 56.917969 62.308594 56.507812 62.050781 56.339844 62.179688 C 55.515625 62.53125 54.714844 62.917969 53.949219 63.378906 C 53.949219 63.121094 54.230469 62.902344 54.453125 62.679688 C 55.085938 62.347656 55.554688 61.238281 56.414062 61.476562 C 56.617188 61.625 56.804688 61.738281 56.917969 61.957031 Z M 50.867188 61.882812 C 50.699219 62.308594 50.195312 62.640625 49.785156 62.902344 C 49 63.066406 48.140625 63.898438 47.320312 63.214844 C 47.359375 63.011719 47.246094 62.734375 47.414062 62.585938 C 47.5625 62.660156 47.300781 63.214844 47.636719 63.289062 C 48.738281 63.269531 49.691406 62.9375 50.457031 62.144531 C 50.53125 61.8125 50.140625 62.070312 50.011719 61.921875 C 49.691406 61.9375 49.355469 62.070312 49.074219 62.050781 C 49.1875 61.8125 49.558594 61.792969 49.839844 61.738281 C 50.195312 61.773438 50.550781 61.644531 50.867188 61.882812 Z M 50.867188 61.882812 "/>
<path style=" stroke:none;fill-rule:nonzero;fill:rgb(100%,100%,100%);fill-opacity:1;" d="M 56.339844 61.921875 C 55.683594 62.199219 55.105469 62.625 54.453125 62.902344 L 54.453125 62.773438 C 55.050781 62.402344 55.574219 61.421875 56.339844 61.828125 Z M 56.339844 61.921875 "/>
<path style=" stroke:none;fill-rule:nonzero;fill:rgb(0%,0%,0%);fill-opacity:1;" d="M 51.988281 62.679688 C 52.210938 62.902344 51.96875 63.101562 51.765625 63.214844 C 50.980469 63.378906 50.269531 63.714844 49.523438 63.953125 C 49.558594 63.730469 49.914062 63.582031 49.972656 63.511719 L 49.914062 63.566406 L 50.011719 63.65625 C 50.644531 63.363281 51.296875 63.140625 51.894531 62.808594 C 51.707031 62.496094 51.203125 62.660156 50.902344 62.679688 C 50.773438 62.792969 50.625 62.84375 50.511719 62.992188 C 50.644531 62.753906 50.921875 62.550781 51.183594 62.402344 C 51.523438 62.328125 51.746094 62.53125 51.988281 62.679688 Z M 56.378906 62.679688 C 56.433594 62.828125 56.339844 63.066406 56.152344 63.121094 C 56.023438 63.066406 55.851562 62.976562 55.703125 63.066406 C 54.488281 63.582031 53.277344 64.101562 52.25 65.023438 L 52.210938 64.988281 C 53.390625 64.007812 54.734375 63.253906 56.113281 62.679688 Z M 59.253906 64.320312 C 58.765625 64.226562 58.953125 63.640625 58.523438 63.4375 C 58.320312 63.011719 57.816406 63.121094 57.460938 63.160156 C 57.328125 63.253906 57.105469 63.363281 57.140625 63.566406 C 57.648438 63.824219 58.226562 63.933594 58.746094 64.136719 C 58.132812 64.082031 57.308594 63.953125 56.789062 63.566406 C 57.140625 63.140625 57.796875 62.902344 58.394531 62.992188 C 58.746094 63.363281 59.160156 63.785156 59.253906 64.320312 Z M 59.253906 64.320312 "/>
<path style=" stroke:none;fill-rule:nonzero;fill:rgb(100%,100%,100%);fill-opacity:1;" d="M 34.511719 64.101562 C 34.675781 64.46875 34.566406 64.800781 34.601562 65.246094 C 34.359375 65.171875 33.929688 65.132812 33.707031 65.023438 C 34.082031 64.765625 34.082031 62.03125 34.511719 64.101562 Z M 34.511719 64.101562 "/>
<path style=" stroke:none;fill-rule:nonzero;fill:rgb(0%,62.352941%,88.235294%);fill-opacity:1;" d="M 6.59375 64.800781 C 6.871094 64.914062 7.136719 65.117188 7.433594 65.152344 C 6.632812 65.558594 5.398438 65.542969 5.117188 66.609375 C 5.042969 67 5.230469 67.277344 5.285156 67.589844 C 4.929688 67.738281 4.335938 67.882812 3.941406 67.644531 C 3.511719 67.386719 3.625 66.832031 3.679688 66.445312 C 3.960938 65.542969 5.042969 64.988281 5.605469 64.265625 C 5.960938 64.394531 6.257812 64.617188 6.59375 64.800781 Z M 57.628906 66.132812 C 57.796875 66.371094 57.925781 66.609375 57.984375 66.886719 C 56.898438 67.496094 55.777344 68.328125 54.941406 69.269531 C 54.847656 69.453125 54.921875 69.710938 55.125 69.769531 C 55.890625 69.769531 55.777344 68.808594 56.414062 68.53125 C 57.121094 68.550781 57.777344 68.992188 58.523438 69.011719 C 58.730469 68.863281 58.710938 68.644531 58.523438 68.476562 C 59.011719 68.199219 59.644531 68.421875 60.089844 68.605469 C 60.765625 68.992188 60.691406 69.804688 60.671875 70.433594 C 60.351562 71.523438 59.679688 72.480469 58.800781 73.351562 C 57.628906 73.980469 55.703125 74.125 54.621094 73.21875 C 54.398438 72.960938 54.324219 72.648438 54.359375 72.296875 C 54.789062 72.113281 55.257812 72.09375 55.703125 71.984375 C 56.300781 71.835938 56.933594 71.726562 57.363281 71.265625 C 57.460938 71.117188 57.402344 70.878906 57.234375 70.820312 C 55.292969 71.558594 52.679688 72.335938 50.773438 71.007812 C 50.253906 70.542969 50.082031 69.914062 50.234375 69.234375 C 50.960938 67.421875 52.960938 66.609375 54.488281 65.726562 C 55.402344 65.28125 56.992188 65.007812 57.628906 66.132812 Z M 57.628906 66.132812 "/>
<path style=" stroke:none;fill-rule:nonzero;fill:rgb(0%,62.352941%,88.235294%);fill-opacity:1;" d="M 50.234375 68.125 C 49.859375 68.847656 49.390625 69.878906 49.972656 70.65625 C 50.664062 71.597656 51.707031 72.078125 52.789062 72.296875 C 52.492188 72.890625 52.25 73.628906 52.472656 74.332031 C 52.847656 75.417969 54.023438 76.269531 55.070312 76.582031 C 55.21875 77.136719 55.238281 77.855469 54.902344 78.316406 C 54.152344 79.183594 53.035156 79.238281 51.933594 79.109375 C 50.308594 78.300781 49.765625 76.5625 49.914062 74.773438 C 50.234375 74.753906 50.699219 75.511719 50.960938 74.863281 C 50.121094 73.8125 49.226562 72.757812 48.570312 71.632812 C 47.898438 70.191406 47.46875 68.550781 47.730469 66.832031 C 48.703125 66.945312 49.542969 67.367188 50.234375 68.125 Z M 50.234375 68.125 "/>
<path style=" stroke:none;fill-rule:nonzero;fill:rgb(100%,100%,100%);fill-opacity:1;" d="M 59.027344 67.589844 L 58.039062 67.867188 C 57.984375 67.738281 58.300781 67.53125 58.394531 67.421875 C 58.597656 67.480469 58.765625 67.664062 59.027344 67.589844 Z M 61.527344 68.664062 C 62.238281 70.046875 61.792969 71.835938 61.210938 73.128906 C 60.277344 74.734375 58.636719 76.15625 56.730469 76.195312 C 55.164062 76.175781 53.5 75.75 52.828125 74.238281 C 52.714844 73.515625 52.808594 72.742188 53.277344 72.242188 C 53.5 72.335938 53.800781 72.277344 54.042969 72.296875 C 54.058594 72.960938 54.453125 73.589844 55.070312 73.886719 C 56.359375 74.476562 58.019531 74.183594 59.066406 73.3125 C 60.242188 72.1875 60.894531 70.785156 60.894531 69.234375 C 60.652344 68.699219 60.089844 68.144531 59.476562 68.125 L 58.710938 68.089844 C 58.914062 67.996094 59.195312 67.882812 59.476562 67.867188 C 60.296875 67.773438 61.136719 67.882812 61.527344 68.664062 Z M 61.527344 68.664062 "/>
<path style=" stroke:none;fill-rule:nonzero;fill:rgb(0%,62.352941%,88.235294%);fill-opacity:1;" d="M 22.820312 68.753906 C 23.25 69.363281 23.808594 69.972656 24.464844 70.339844 C 24.484375 70.488281 24.332031 70.601562 24.203125 70.601562 C 23.527344 70.765625 22.878906 70.433594 22.503906 69.898438 C 22.148438 69.382812 22.183594 68.664062 22.539062 68.164062 C 22.613281 68.328125 22.765625 68.53125 22.820312 68.753906 Z M 22.820312 68.753906 "/>
<path style=" stroke:none;fill-rule:nonzero;fill:url(#linear14);" d="M 48.535156 9.980469 C 45.246094 9.429688 42.089844 9.429688 38.765625 9.632812 L 38.730469 9.6875 C 38.636719 9.429688 38.488281 9.835938 38.414062 9.59375 L 38.226562 9.6875 C 37.386719 9.632812 36.769531 9.746094 35.949219 9.816406 C 34.210938 10.058594 32.621094 10.222656 30.925781 10.519531 C 30.589844 10.609375 30.140625 10.742188 29.710938 10.796875 C 33.015625 7.472656 35.835938 4.316406 39.175781 0.898438 C 42.449219 4.019531 45.359375 6.714844 48.535156 9.980469 Z M 48.570312 24.699219 C 47.523438 24.421875 46.21875 24.367188 45.136719 24.21875 C 41.734375 23.921875 38.191406 24.128906 34.601562 24.570312 C 26.5 25.882812 19.011719 29.886719 13.894531 36.792969 C 14.996094 36.941406 16.078125 37.105469 17.125 37.421875 C 21.214844 38.546875 25.976562 41.722656 26.535156 46.320312 C 26.796875 47.277344 26.144531 48.316406 26.761719 49.070312 C 27.113281 51.007812 26.535156 52.875 25.003906 54.203125 C 25.171875 54.1875 25.359375 54.09375 25.511719 54.128906 C 25.714844 53.910156 25.902344 54.078125 26.128906 53.910156 C 28.945312 53.355469 31.800781 52.652344 34.640625 52.429688 C 34.921875 51.878906 35.257812 51.324219 35.632812 50.808594 C 36.285156 49.660156 37.308594 49.84375 38.320312 49.957031 C 38.804688 49.828125 39.175781 49.421875 39.476562 48.980469 C 39.796875 48.871094 40.167969 49.015625 40.429688 49.035156 C 40.429688 48.480469 40.148438 48.054688 40.148438 47.519531 C 40.09375 45.691406 41.996094 44.453125 43.285156 43.53125 C 42.261719 43.847656 41.289062 44.34375 40.464844 45.214844 C 40.296875 45.269531 40.09375 45.527344 39.925781 45.359375 C 39.886719 45.0625 40.09375 44.730469 40.335938 44.546875 C 40.261719 44.363281 39.925781 44.417969 39.796875 44.160156 C 39.796875 43.625 39.945312 43.144531 40.242188 42.738281 C 41.160156 41.539062 42.390625 41.128906 43.605469 41.09375 C 46.144531 41.222656 48.085938 42.792969 50.289062 43.714844 C 50.585938 43.714844 50.941406 44.105469 51.183594 43.714844 C 50.941406 41.960938 51.425781 39.949219 52.566406 38.492188 C 52.863281 38.140625 53.203125 37.773438 53.464844 37.457031 C 55.199219 35.980469 57.496094 34.890625 59.738281 34.355469 C 61.472656 33.800781 63.433594 33.78125 65.339844 33.5625 C 61.699219 29.519531 57.328125 27.136719 52.566406 25.585938 C 51.914062 25.421875 51.277344 25.199219 50.585938 25.105469 C 50.441406 24.957031 50.195312 25.03125 50.066406 24.921875 C 49.839844 25.03125 49.671875 24.734375 49.390625 24.828125 C 49.09375 24.828125 48.851562 24.625 48.570312 24.699219 Z M 77.703125 38.085938 L 74.527344 42.332031 C 74.488281 42.886719 75.050781 43.585938 74.527344 44.105469 C 74.359375 44.289062 74.097656 44.195312 73.890625 44.25 C 73.574219 45.617188 72.773438 47.207031 71.261719 47.648438 C 69.878906 47.851562 68.535156 47.445312 67.542969 46.46875 C 67.558594 46.78125 67.671875 47.132812 67.617188 47.429688 L 67.804688 47.390625 C 67.972656 47.445312 68.085938 47.613281 67.988281 47.78125 C 67.914062 47.90625 67.785156 48.09375 67.617188 48.09375 C 67.578125 49.53125 67.449219 50.917969 66.871094 52.136719 C 67.636719 52.246094 68.535156 51.953125 69.371094 51.859375 L 69.691406 50.84375 C 69.988281 49.347656 71.484375 48.277344 72.828125 47.742188 L 78.878906 39.988281 C 79.867188 39.265625 78.242188 38.75 77.925781 38.121094 Z M 2.277344 39.542969 L 2.148438 39.542969 L 0.636719 41.09375 C 1.160156 41.832031 1.757812 42.535156 2.371094 43.21875 L 2.464844 43.21875 C 2.898438 42.648438 3.382812 42.09375 3.773438 41.5 Z M 7.808594 47.078125 L 6.5 48.054688 C 6.632812 48.390625 6.949219 48.648438 7.171875 48.941406 C 7.511719 48.851562 7.714844 48.441406 8.070312 48.40625 C 8.386719 48.257812 8.515625 47.90625 8.386719 47.613281 C 8.144531 47.445312 8.164062 47.019531 7.808594 47.078125 Z M 44.089844 54.792969 L 43.960938 54.832031 C 43.605469 55.605469 43.828125 56.570312 43.0625 57.230469 C 42.726562 57.527344 42.238281 57.492188 41.773438 57.492188 C 41.53125 57.785156 41.195312 57.96875 40.878906 58.15625 C 40.523438 58.171875 40.113281 58.171875 39.796875 58.0625 C 39.214844 58.558594 38.449219 58.820312 37.683594 58.632812 C 36.601562 58.46875 35.480469 57.878906 34.734375 56.957031 C 33.183594 57.140625 31.613281 57.25 30.253906 57.894531 C 33.050781 59.355469 35.3125 62.21875 35.050781 65.503906 C 35.554688 65.617188 35.816406 66.132812 36.039062 66.539062 C 37.347656 66.148438 38.617188 66.574219 39.703125 67.277344 C 40.578125 67.902344 40.988281 68.863281 40.914062 69.863281 C 40.710938 73.21875 37.308594 75.804688 34.378906 76.804688 C 34.265625 77.523438 34.082031 78.207031 33.800781 78.851562 C 33.597656 79.164062 33.277344 79.445312 33.203125 79.832031 L 40.824219 88.917969 L 40.914062 88.917969 C 43.546875 85.5 46.199219 82.007812 48.890625 78.578125 C 48.273438 76.859375 48.535156 74.902344 48.851562 73.183594 C 47.246094 70.96875 46.851562 68.144531 47.285156 65.375 C 46.085938 65.339844 45.058594 64.246094 44.6875 63.214844 C 44.128906 61.773438 45.992188 62.050781 46.648438 61.476562 C 46.703125 60.941406 46.144531 60.480469 45.882812 59.964844 C 45.882812 59.410156 45.660156 58.785156 46.257812 58.414062 C 47.113281 58.355469 47.769531 58.523438 48.570312 58.46875 C 48.550781 58.265625 48.796875 58.117188 48.722656 57.933594 C 48.234375 57.84375 47.785156 57.617188 47.378906 57.363281 C 46.910156 57.398438 46.386719 57.308594 45.9375 57.175781 C 45.042969 56.769531 44.183594 55.808594 44.089844 54.792969 Z M 61.941406 56.917969 L 61.847656 57.011719 C 61.863281 57.363281 62.203125 57.636719 62.464844 57.84375 C 63.078125 58.171875 63.996094 58.558594 64.628906 58.027344 L 64.667969 58.0625 C 64.761719 58.082031 64.835938 58.0625 64.890625 57.96875 C 65.320312 57.34375 65.824219 56.972656 66.140625 56.289062 C 64.703125 56.4375 63.339844 56.714844 61.941406 56.917969 Z M 18.695312 62.550781 C 19.703125 63.972656 21.121094 65.503906 22.222656 66.832031 C 22.109375 66.078125 22.128906 65.132812 21.867188 64.359375 C 21.644531 64.027344 21.589844 63.621094 21.382812 63.289062 C 21.140625 62.050781 19.441406 62.734375 18.695312 62.550781 Z M 27.527344 70.304688 C 26.910156 70.507812 26.273438 70.601562 25.546875 70.65625 C 25.601562 70.96875 26.015625 71.152344 26.128906 71.414062 L 26.445312 71.097656 C 26.835938 70.820312 27.078125 70.375 27.527344 70.375 Z M 27.527344 70.304688 "/>
<path style=" stroke:none;fill-rule:nonzero;fill:rgb(100%,100%,100%);fill-opacity:1;" d="M 62.425781 70.785156 C 62.464844 71.429688 62.578125 72.261719 62.164062 72.742188 C 61.828125 72.816406 61.792969 72.445312 61.886719 72.242188 C 62.074219 71.746094 62.074219 71.152344 62.238281 70.65625 C 62.371094 70.601562 62.371094 70.726562 62.425781 70.785156 Z M 49.746094 75.917969 C 50.011719 77.394531 50.605469 79.183594 52.304688 79.609375 C 53.445312 79.628906 54.675781 79.425781 55.351562 78.355469 C 55.574219 77.839844 55.515625 77.265625 55.386719 76.730469 C 55.816406 76.878906 56.617188 76.546875 56.695312 77.175781 C 56.992188 78.207031 56.972656 79.535156 56.191406 80.347656 C 55.238281 81.289062 53.949219 81.640625 52.566406 81.453125 C 50.980469 81.144531 49.523438 79.574219 49.242188 78.003906 C 48.890625 76.527344 48.980469 75.160156 49.167969 73.628906 C 50.082031 74.089844 49.523438 75.160156 49.746094 75.917969 Z M 25.734375 73.664062 C 26.3125 75.695312 28.421875 77.007812 30.347656 77.175781 C 31.539062 77.320312 32.660156 77.136719 33.875 76.949219 C 33.742188 78.648438 32.457031 80.441406 30.738281 80.976562 C 28.574219 81.585938 25.921875 81.050781 24.425781 79.164062 C 23.828125 78.390625 23.996094 77.210938 24.425781 76.414062 C 24.597656 76.027344 24.96875 75.734375 25.230469 75.398438 C 25.414062 74.828125 25.324219 74.109375 25.734375 73.664062 Z M 25.734375 73.664062 "/>
<path style=" stroke:none;fill-rule:nonzero;fill:rgb(0%,0%,0%);fill-opacity:1;" d="M 63.734375 52.082031 C 63.601562 52.082031 63.527344 52.175781 63.414062 52.210938 C 61.902344 52.023438 60.335938 51.234375 59.699219 49.734375 C 59.570312 49.496094 59.8125 49.402344 59.925781 49.199219 C 59.664062 48.90625 59.195312 49.054688 58.933594 49.199219 C 58.785156 49.3125 58.878906 49.476562 59.027344 49.515625 C 59.757812 49.273438 59.421875 50.269531 59.832031 50.585938 C 59.382812 50.863281 58.878906 50.9375 58.484375 51.324219 C 58.375 51.527344 58.300781 51.746094 58.429688 51.953125 C 58.480469 52.074219 58.582031 52.164062 58.714844 52.230469 C 58.753906 52.261719 58.792969 52.28125 58.835938 52.285156 C 59.101562 52.386719 59.441406 52.414062 59.703125 52.429688 C 60.335938 52.492188 60.839844 52.300781 61.492188 52.265625 C 62.074219 51.730469 62.742188 52.320312 63.414062 52.265625 C 63.339844 52.414062 63.339844 52.46875 63.414062 52.617188 C 63.601562 52.617188 63.734375 52.484375 63.863281 52.359375 C 63.902344 52.226562 63.808594 52.15625 63.734375 52.082031 Z M 63.734375 52.082031 "/>
<path style=" stroke:none;fill-rule:nonzero;fill:rgb(80%,11.764706%,27.843137%);fill-opacity:1;" d="M 58.753906 52.132812 C 58.582031 51.980469 58.484375 51.78125 58.484375 51.546875 C 58.691406 51.269531 58.988281 51.214844 59.253906 51.066406 C 59.476562 51.160156 59.71875 51.417969 59.832031 51.636719 C 59.882812 51.886719 59.792969 52.195312 59.558594 52.351562 C 59.15625 52.355469 58.902344 52.25 58.753906 52.132812 Z M 58.753906 52.132812 "/>
<path style=" stroke:none;fill-rule:nonzero;fill:rgb(100%,100%,100%);fill-opacity:1;" d="M 21.550781 48.40625 C 22.484375 47.554688 23.734375 47.113281 24.96875 47.390625 C 25.246094 47.539062 25.566406 47.613281 25.808594 47.832031 C 25.753906 45.675781 25.097656 43.625 23.621094 42.035156 C 22.746094 41.039062 21.832031 40.226562 20.746094 39.636719 C 17.683594 37.773438 14.023438 36.941406 10.347656 37.328125 C 7.226562 38.175781 4.238281 40.835938 2.726562 43.753906 C 2.242188 44.917969 1.515625 46.300781 2.113281 47.554688 C 2.503906 48.257812 3.269531 48.316406 3.996094 48.316406 C 6.222656 47.945312 7.9375 46.414062 9.730469 44.992188 C 10.515625 44.269531 11.671875 43.496094 11.429688 42.332031 C 11.558594 42.148438 11.746094 42.074219 11.972656 42.109375 C 12.195312 42.203125 12.421875 42.425781 12.363281 42.703125 C 11.671875 44.140625 10.105469 45.195312 8.871094 46.246094 C 9.078125 46.578125 9.058594 47.09375 9.058594 47.429688 C 11.355469 45.175781 13.859375 43.144531 16.546875 41.722656 C 16.769531 41.628906 17.050781 41.667969 17.21875 41.851562 C 17.351562 42.21875 16.808594 42.40625 16.585938 42.609375 C 16.359375 42.554688 16.117188 42.535156 15.910156 42.425781 C 13.503906 44.085938 11.019531 45.75 8.925781 47.964844 L 8.925781 48.054688 L 9.824219 48.054688 C 9.917969 47.816406 10.179688 47.59375 10.402344 47.429688 C 10.609375 47.277344 10.945312 47.351562 11.167969 47.429688 C 11.285156 47.535156 11.417969 47.625 11.519531 47.734375 L 12.304688 47.175781 L 13.101562 46.738281 L 14.246094 45.355469 L 14.882812 45.007812 L 15.453125 45.070312 L 15.996094 45.382812 C 15.996094 45.382812 16.398438 45.347656 17.023438 45.515625 C 16.984375 45.488281 16.941406 45.460938 16.902344 45.433594 C 18.710938 45.691406 20.449219 46.929688 21.550781 48.40625 Z M 21.550781 48.40625 "/>
</g>
</svg>
